<svg width="246" height="80" viewBox="0 0 246 80" fill="none" xmlns="http://www.w3.org/2000/svg">
<path d="M21.8818 23.2764H13.248V17.4932C13.248 15.8115 13.1523 14.7656 12.9609 14.3555C12.7832 13.9316 12.3799 13.7197 11.751 13.7197C11.04 13.7197 10.5889 13.9727 10.3975 14.4785C10.2061 14.9844 10.1104 16.0781 10.1104 17.7598V33.1816C10.1104 34.7949 10.2061 35.8477 10.3975 36.3398C10.5889 36.832 11.0195 37.0781 11.6895 37.0781C12.332 37.0781 12.749 36.832 12.9404 36.3398C13.1455 35.8477 13.248 34.6924 13.248 32.874V28.7109H21.8818V30.0029C21.8818 33.4346 21.6357 35.8682 21.1436 37.3037C20.665 38.7393 19.5918 39.9971 17.9238 41.0771C16.2695 42.1572 14.2256 42.6973 11.792 42.6973C9.2627 42.6973 7.17773 42.2393 5.53711 41.3232C3.89648 40.4072 2.80957 39.1426 2.27637 37.5293C1.74316 35.9023 1.47656 33.4619 1.47656 30.208V20.5078C1.47656 18.1152 1.55859 16.3242 1.72266 15.1348C1.88672 13.9316 2.37207 12.7764 3.17871 11.6689C3.99902 10.5615 5.12695 9.69336 6.5625 9.06445C8.01172 8.42188 9.67285 8.10059 11.5459 8.10059C14.0889 8.10059 16.1875 8.59277 17.8418 9.57715C19.4961 10.5615 20.583 11.792 21.1025 13.2686C21.6221 14.7314 21.8818 17.0146 21.8818 20.1182V23.2764ZM30.4385 8.79785H44.835V15.4424H39.0723V21.7383H44.4659V28.0547H39.0723V35.3555H45.4092V42H30.4385V8.79785ZM53.3712 8.79785H59.4825C63.5567 8.79785 66.3116 8.95508 67.7471 9.26953C69.1964 9.58398 70.3721 10.3906 71.2745 11.6895C72.1905 12.9746 72.6485 15.0322 72.6485 17.8623C72.6485 20.4463 72.3272 22.1826 71.6846 23.0713C71.0421 23.96 69.7774 24.4932 67.8907 24.6709C69.5997 25.0947 70.7481 25.6621 71.336 26.373C71.9239 27.084 72.2862 27.7402 72.4229 28.3418C72.5733 28.9297 72.6485 30.5635 72.6485 33.2432V42H64.63V30.9668C64.63 29.1895 64.4864 28.0889 64.1993 27.665C63.9259 27.2412 63.1944 27.0293 62.005 27.0293V42H53.3712V8.79785ZM62.005 14.4785V21.8613C62.9757 21.8613 63.6524 21.7314 64.0352 21.4717C64.4317 21.1982 64.63 20.3301 64.63 18.8672V17.042C64.63 15.9893 64.4386 15.2988 64.0557 14.9707C63.6866 14.6426 63.003 14.4785 62.005 14.4785ZM81.4718 8.79785H87.5831C91.6573 8.79785 94.4122 8.95508 95.8478 9.26953C97.297 9.58398 98.4728 10.3906 99.3751 11.6895C100.291 12.9746 100.749 15.0322 100.749 17.8623C100.749 20.4463 100.428 22.1826 99.7853 23.0713C99.1427 23.96 97.878 24.4932 95.9913 24.6709C97.7003 25.0947 98.8487 25.6621 99.4366 26.373C100.025 27.084 100.387 27.7402 100.524 28.3418C100.674 28.9297 100.749 30.5635 100.749 33.2432V42H92.7306V30.9668C92.7306 29.1895 92.587 28.0889 92.2999 27.665C92.0265 27.2412 91.295 27.0293 90.1056 27.0293V42H81.4718V8.79785ZM90.1056 14.4785V21.8613C91.0763 21.8613 91.753 21.7314 92.1359 21.4717C92.5323 21.1982 92.7306 20.3301 92.7306 18.8672V17.042C92.7306 15.9893 92.5392 15.2988 92.1564 14.9707C91.7872 14.6426 91.1036 14.4785 90.1056 14.4785ZM124.482 8.79785L129.424 42H120.585L120.154 36.0322H117.058L116.545 42H107.604L111.992 8.79785H124.482ZM119.908 30.1465C119.471 26.3867 119.033 21.7451 118.596 16.2217C117.721 22.5654 117.174 27.207 116.955 30.1465H119.908ZM146.922 8.79785V30.9873C146.922 34.3096 146.888 36.4492 146.82 37.4062C146.751 38.3496 146.437 39.2041 145.876 39.9697C145.329 40.7354 144.577 41.2686 143.62 41.5693C142.677 41.8564 141.248 42 139.334 42H135.007V36.1963C135.527 36.2373 135.903 36.2578 136.135 36.2578C136.75 36.2578 137.236 36.1074 137.591 35.8066C137.946 35.5059 138.152 35.1367 138.206 34.6992C138.261 34.2617 138.288 33.4141 138.288 32.1562V8.79785H146.922ZM155.725 8.79785H170.121V15.4424H164.359V21.7383H169.752V28.0547H164.359V35.3555H170.696V42H155.725V8.79785ZM178.658 8.79785H184.769C188.843 8.79785 191.598 8.95508 193.033 9.26953C194.483 9.58398 195.658 10.3906 196.561 11.6895C197.477 12.9746 197.935 15.0322 197.935 17.8623C197.935 20.4463 197.614 22.1826 196.971 23.0713C196.328 23.96 195.064 24.4932 193.177 24.6709C194.886 25.0947 196.034 25.6621 196.622 26.373C197.21 27.084 197.573 27.7402 197.709 28.3418C197.86 28.9297 197.935 30.5635 197.935 33.2432V42H189.916V30.9668C189.916 29.1895 189.773 28.0889 189.486 27.665C189.212 27.2412 188.481 27.0293 187.291 27.0293V42H178.658V8.79785ZM187.291 14.4785V21.8613C188.262 21.8613 188.939 21.7314 189.322 21.4717C189.718 21.1982 189.916 20.3301 189.916 18.8672V17.042C189.916 15.9893 189.725 15.2988 189.342 14.9707C188.973 14.6426 188.289 14.4785 187.291 14.4785ZM215.392 8.79785V42H206.758V8.79785H215.392ZM239.227 8.79785L244.169 42H235.33L234.9 36.0322H231.803L231.29 42H222.349L226.738 8.79785H239.227ZM234.654 30.1465C234.216 26.3867 233.779 21.7451 233.341 16.2217C232.466 22.5654 231.919 27.207 231.701 30.1465H234.654Z" fill="#FFDF32"/>
<path d="M21.8818 23.2764V23.5264H22.1318V23.2764H21.8818ZM13.248 23.2764H12.998V23.5264H13.248V23.2764ZM12.9609 14.3555L12.7302 14.4522L12.7344 14.4612L12.9609 14.3555ZM12.9404 36.3398L12.7096 36.2437L12.7074 36.2492L12.9404 36.3398ZM13.248 28.7109V28.4609H12.998V28.7109H13.248ZM21.8818 28.7109H22.1318V28.4609H21.8818V28.7109ZM21.1436 37.3037L20.9071 37.2226L20.9064 37.2247L21.1436 37.3037ZM17.9238 41.0771L17.7879 40.8673L17.7872 40.8678L17.9238 41.0771ZM2.27637 37.5293L2.0388 37.6072L2.039 37.6078L2.27637 37.5293ZM1.72266 15.1348L1.97031 15.1689L1.97036 15.1685L1.72266 15.1348ZM3.17871 11.6689L2.97782 11.5201L2.97663 11.5218L3.17871 11.6689ZM6.5625 9.06445L6.66282 9.29344L6.66383 9.29299L6.5625 9.06445ZM21.1025 13.2686L20.8667 13.3515L20.867 13.3522L21.1025 13.2686ZM21.8818 23.0264H13.248V23.5264H21.8818V23.0264ZM13.498 23.2764V17.4932H12.998V23.2764H13.498ZM13.498 17.4932C13.498 16.6487 13.4741 15.9584 13.4252 15.4247C13.3773 14.901 13.3033 14.498 13.1875 14.2497L12.7344 14.4612C12.81 14.6231 12.8795 14.9481 12.9273 15.4703C12.9742 15.9826 12.998 16.656 12.998 17.4932H13.498ZM13.1915 14.2588C13.0804 13.9938 12.895 13.7906 12.6414 13.6574C12.3929 13.5268 12.0913 13.4697 11.751 13.4697V13.9697C12.0395 13.9697 12.2541 14.0186 12.4089 14.1C12.5586 14.1787 12.6638 14.2933 12.7304 14.4522L13.1915 14.2588ZM11.751 13.4697C11.368 13.4697 11.0315 13.5376 10.7571 13.6914C10.4778 13.848 10.2791 14.0849 10.1636 14.39L10.6313 14.567C10.7072 14.3663 10.8298 14.2238 11.0016 14.1275C11.1785 14.0284 11.423 13.9697 11.751 13.9697V13.4697ZM10.1636 14.39C10.0552 14.6766 9.98132 15.1051 9.93308 15.6564C9.88436 16.2133 9.86035 16.9151 9.86035 17.7598H10.3604C10.3604 16.9228 10.3842 16.2369 10.4312 15.7C10.4786 15.1576 10.5483 14.7862 10.6313 14.567L10.1636 14.39ZM9.86035 17.7598V33.1816H10.3604V17.7598H9.86035ZM9.86035 33.1816C9.86035 33.9924 9.88436 34.6671 9.93316 35.2038C9.98145 35.7351 10.0555 36.1503 10.1645 36.4305L10.6305 36.2492C10.548 36.0372 10.4785 35.68 10.4311 35.1585C10.3842 34.6425 10.3604 33.9842 10.3604 33.1816H9.86035ZM10.1645 36.4305C10.2795 36.7262 10.4716 36.9572 10.74 37.1106C11.0041 37.2615 11.3257 37.3281 11.6895 37.3281V36.8281C11.3833 36.8281 11.1546 36.7717 10.988 36.6765C10.8258 36.5838 10.7068 36.4457 10.6305 36.2492L10.1645 36.4305ZM11.6895 37.3281C12.0413 37.3281 12.3536 37.2609 12.6112 37.1089C12.8725 36.9547 13.0594 36.7238 13.1734 36.4305L12.7074 36.2492C12.6301 36.4481 12.5128 36.5863 12.3571 36.6783C12.1977 36.7723 11.9802 36.8281 11.6895 36.8281V37.3281ZM13.1712 36.436C13.2896 36.1518 13.3686 35.7068 13.4202 35.1264C13.4723 34.5385 13.498 33.787 13.498 32.874H12.998C12.998 33.7795 12.9725 34.5148 12.9221 35.0821C12.8711 35.657 12.7963 36.0357 12.7097 36.2437L13.1712 36.436ZM13.498 32.874V28.7109H12.998V32.874H13.498ZM13.248 28.9609H21.8818V28.4609H13.248V28.9609ZM21.6318 28.7109V30.0029H22.1318V28.7109H21.6318ZM21.6318 30.0029C21.6318 33.4329 21.3846 35.8298 20.9071 37.2226L21.38 37.3848C21.8869 35.9066 22.1318 33.4362 22.1318 30.0029H21.6318ZM20.9064 37.2247C20.4507 38.5916 19.4233 39.8083 17.7879 40.8673L18.0597 41.287C19.7603 40.1858 20.8793 38.887 21.3807 37.3828L20.9064 37.2247ZM17.7872 40.8678C16.182 41.9158 14.1883 42.4473 11.792 42.4473V42.9473C14.2628 42.9473 16.357 42.3987 18.0605 41.2865L17.7872 40.8678ZM11.792 42.4473C9.29117 42.4473 7.25167 41.9942 5.65898 41.105L5.41524 41.5415C7.1038 42.4843 9.23422 42.9473 11.792 42.9473V42.4473ZM5.65898 41.105C4.06674 40.216 3.02516 38.9982 2.51374 37.4508L2.039 37.6078C2.59398 39.2869 3.72623 40.5985 5.41524 41.5415L5.65898 41.105ZM2.51393 37.4514C1.99337 35.863 1.72656 33.4548 1.72656 30.208H1.22656C1.22656 33.4691 1.49296 35.9417 2.0388 37.6072L2.51393 37.4514ZM1.72656 30.208V20.5078H1.22656V30.208H1.72656ZM1.72656 20.5078C1.72656 18.1178 1.80868 16.3408 1.97031 15.1689L1.475 15.1006C1.30851 16.3077 1.22656 18.1127 1.22656 20.5078H1.72656ZM1.97036 15.1685C2.12815 14.0114 2.59534 12.8945 3.38079 11.8161L2.97663 11.5218C2.1488 12.6583 1.64529 13.8518 1.47495 15.101L1.97036 15.1685ZM3.3796 11.8178C4.17056 10.75 5.26164 9.90729 6.66282 9.29344L6.46218 8.83546C4.99226 9.47943 3.82749 10.3731 2.97782 11.5201L3.3796 11.8178ZM6.66383 9.29299C8.07588 8.6669 9.70151 8.35059 11.5459 8.35059V7.85059C9.6442 7.85059 7.94755 8.17685 6.46117 8.83591L6.66383 9.29299ZM11.5459 8.35059C14.0579 8.35059 16.1088 8.83688 17.714 9.79199L17.9696 9.36231C16.2662 8.34867 14.1198 7.85059 11.5459 7.85059V8.35059ZM17.714 9.79199C19.3299 10.7535 20.3708 11.9421 20.8667 13.3515L21.3384 13.1856C20.7952 11.6419 19.6623 10.3695 17.9696 9.36231L17.714 9.79199ZM20.867 13.3522C21.3715 14.773 21.6318 17.0205 21.6318 20.1182H22.1318C22.1318 17.0088 21.8726 14.6899 21.3381 13.1849L20.867 13.3522ZM21.6318 20.1182V23.2764H22.1318V20.1182H21.6318ZM30.4385 8.79785V8.54785H30.1885V8.79785H30.4385ZM44.835 8.79785H45.085V8.54785H44.835V8.79785ZM44.835 15.4424V15.6924H45.085V15.4424H44.835ZM39.0723 15.4424V15.1924H38.8223V15.4424H39.0723ZM39.0723 21.7383H38.8223V21.9883H39.0723V21.7383ZM44.4659 21.7383H44.7159V21.4883H44.4659V21.7383ZM44.4659 28.0547V28.3047H44.7159V28.0547H44.4659ZM39.0723 28.0547V27.8047H38.8223V28.0547H39.0723ZM39.0723 35.3555H38.8223V35.6055H39.0723V35.3555ZM45.4092 35.3555H45.6592V35.1055H45.4092V35.3555ZM45.4092 42V42.25H45.6592V42H45.4092ZM30.4385 42H30.1885V42.25H30.4385V42ZM30.4385 9.04785H44.835V8.54785H30.4385V9.04785ZM44.585 8.79785V15.4424H45.085V8.79785H44.585ZM44.835 15.1924H39.0723V15.6924H44.835V15.1924ZM38.8223 15.4424V21.7383H39.3223V15.4424H38.8223ZM39.0723 21.9883H44.4659V21.4883H39.0723V21.9883ZM44.2159 21.7383V28.0547H44.7159V21.7383H44.2159ZM44.4659 27.8047H39.0723V28.3047H44.4659V27.8047ZM38.8223 28.0547V35.3555H39.3223V28.0547H38.8223ZM39.0723 35.6055H45.4092V35.1055H39.0723V35.6055ZM45.1592 35.3555V42H45.6592V35.3555H45.1592ZM45.4092 41.75H30.4385V42.25H45.4092V41.75ZM30.6885 42V8.79785H30.1885V42H30.6885ZM53.3712 8.79785V8.54785H53.1212V8.79785H53.3712ZM67.7471 9.26953L67.6937 9.51374L67.6941 9.51385L67.7471 9.26953ZM71.2745 11.6895L71.0692 11.8321L71.0709 11.8346L71.2745 11.6895ZM67.8907 24.6709L67.8673 24.422L67.8305 24.9135L67.8907 24.6709ZM72.4229 28.3418L72.1791 28.3972L72.1807 28.4038L72.4229 28.3418ZM72.6485 42V42.25H72.8985V42H72.6485ZM64.63 42H64.38V42.25H64.63V42ZM64.1993 27.665L63.9892 27.8006L63.9923 27.8053L64.1993 27.665ZM62.005 27.0293V26.7793H61.755V27.0293H62.005ZM62.005 42V42.25H62.255V42H62.005ZM53.3712 42H53.1212V42.25H53.3712V42ZM62.005 14.4785V14.2285H61.755V14.4785H62.005ZM62.005 21.8613H61.755V22.1113H62.005V21.8613ZM64.0352 21.4717L64.1756 21.6786L64.1772 21.6775L64.0352 21.4717ZM64.0557 14.9707L63.8896 15.1576L63.893 15.1605L64.0557 14.9707ZM53.3712 9.04785H59.4825V8.54785H53.3712V9.04785ZM59.4825 9.04785C63.5598 9.04785 66.2884 9.20593 67.6937 9.51374L67.8006 9.02532C66.3348 8.70423 63.5537 8.54785 59.4825 8.54785V9.04785ZM67.6941 9.51385C69.0772 9.81394 70.2003 10.5814 71.0692 11.8321L71.4798 11.5468C70.544 10.1998 69.3155 9.35403 67.8002 9.02522L67.6941 9.51385ZM71.0709 11.8346C71.941 13.0552 72.3985 15.0481 72.3985 17.8623H72.8985C72.8985 15.0164 72.4401 12.894 71.4781 11.5443L71.0709 11.8346ZM72.3985 17.8623C72.3985 19.1454 72.3186 20.209 72.1617 21.0571C72.0042 21.9085 71.7723 22.5234 71.4821 22.9248L71.8872 23.2178C72.2395 22.7305 72.4896 22.0329 72.6534 21.148C72.8177 20.2597 72.8985 19.1632 72.8985 17.8623H72.3985ZM71.4821 22.9248C70.904 23.7243 69.7319 24.2464 67.8673 24.422L67.9141 24.9198C69.823 24.74 71.1802 24.1957 71.8872 23.2178L71.4821 22.9248ZM67.8305 24.9135C69.5279 25.3345 70.6089 25.8861 71.1434 26.5324L71.5287 26.2137C70.8873 25.4382 69.6715 24.855 67.9509 24.4282L67.8305 24.9135ZM71.1434 26.5324C71.7176 27.2268 72.0543 27.848 72.1791 28.3972L72.6667 28.2864C72.5181 27.6325 72.1302 26.9411 71.5287 26.2137L71.1434 26.5324ZM72.1807 28.4038C72.2487 28.6694 72.3047 29.2003 72.3424 30.0196C72.3797 30.831 72.3985 31.9051 72.3985 33.2432H72.8985C72.8985 31.9016 72.8797 30.8189 72.8419 29.9966C72.8044 29.182 72.7476 28.6021 72.6651 28.2798L72.1807 28.4038ZM72.3985 33.2432V42H72.8985V33.2432H72.3985ZM72.6485 41.75H64.63V42.25H72.6485V41.75ZM64.88 42V30.9668H64.38V42H64.88ZM64.88 30.9668C64.88 30.0729 64.8439 29.3414 64.7702 28.776C64.6979 28.2221 64.5854 27.7892 64.4063 27.5248L63.9923 27.8053C64.1003 27.9647 64.2031 28.294 64.2744 28.8407C64.3442 29.3759 64.38 30.0833 64.38 30.9668H64.88ZM64.4094 27.5295C64.2268 27.2466 63.9103 27.0626 63.5152 26.9481C63.1179 26.833 62.6116 26.7793 62.005 26.7793V27.2793C62.5878 27.2793 63.0419 27.3315 63.3761 27.4284C63.7124 27.5258 63.8983 27.6597 63.9892 27.8006L64.4094 27.5295ZM61.755 27.0293V42H62.255V27.0293H61.755ZM62.005 41.75H53.3712V42.25H62.005V41.75ZM53.6212 42V8.79785H53.1212V42H53.6212ZM61.755 14.4785V21.8613H62.255V14.4785H61.755ZM62.005 22.1113C62.9813 22.1113 63.7257 21.9839 64.1756 21.6785L63.8949 21.2648C63.5792 21.479 62.97 21.6113 62.005 21.6113V22.1113ZM64.1772 21.6775C64.4558 21.4853 64.6225 21.1201 64.725 20.6711C64.8301 20.2109 64.88 19.607 64.88 18.8672H64.38C64.38 19.5902 64.3307 20.1519 64.2376 20.5598C64.1418 20.979 64.0111 21.1846 63.8933 21.2659L64.1772 21.6775ZM64.88 18.8672V17.042H64.38V18.8672H64.88ZM64.88 17.042C64.88 16.5026 64.8312 16.0424 64.7273 15.6678C64.6237 15.2941 64.4603 14.9882 64.2184 14.7809L63.893 15.1605C64.0339 15.2813 64.1577 15.4847 64.2455 15.8014C64.3331 16.1173 64.38 16.5287 64.38 17.042H64.88ZM64.2218 14.7839C63.7787 14.3899 63.0111 14.2285 62.005 14.2285V14.7285C62.9949 14.7285 63.5945 14.8952 63.8896 15.1576L64.2218 14.7839ZM81.4718 8.79785V8.54785H81.2218V8.79785H81.4718ZM95.8478 9.26953L95.7943 9.51374L95.7948 9.51385L95.8478 9.26953ZM99.3751 11.6895L99.1698 11.8321L99.1715 11.8346L99.3751 11.6895ZM95.9913 24.6709L95.9679 24.422L95.9311 24.9135L95.9913 24.6709ZM100.524 28.3418L100.28 28.3972L100.281 28.4038L100.524 28.3418ZM100.749 42V42.25H100.999V42H100.749ZM92.7306 42H92.4806V42.25H92.7306V42ZM92.2999 27.665L92.0898 27.8006L92.0929 27.8053L92.2999 27.665ZM90.1056 27.0293V26.7793H89.8556V27.0293H90.1056ZM90.1056 42V42.25H90.3556V42H90.1056ZM81.4718 42H81.2218V42.25H81.4718V42ZM90.1056 14.4785V14.2285H89.8556V14.4785H90.1056ZM90.1056 21.8613H89.8556V22.1113H90.1056V21.8613ZM92.1359 21.4717L92.2762 21.6786L92.2778 21.6775L92.1359 21.4717ZM92.1564 14.9707L91.9902 15.1576L91.9937 15.1605L92.1564 14.9707ZM81.4718 9.04785H87.5831V8.54785H81.4718V9.04785ZM87.5831 9.04785C91.6604 9.04785 94.389 9.20593 95.7943 9.51374L95.9013 9.02532C94.4354 8.70423 91.6543 8.54785 87.5831 8.54785V9.04785ZM95.7948 9.51385C97.1778 9.81394 98.3009 10.5814 99.1698 11.8321L99.5804 11.5468C98.6446 10.1998 97.4162 9.35403 95.9008 9.02522L95.7948 9.51385ZM99.1715 11.8346C100.042 13.0552 100.499 15.0481 100.499 17.8623H100.999C100.999 15.0164 100.541 12.894 99.5787 11.5443L99.1715 11.8346ZM100.499 17.8623C100.499 19.1454 100.419 20.209 100.262 21.0571C100.105 21.9085 99.873 22.5234 99.5827 22.9248L99.9879 23.2178C100.34 22.7305 100.59 22.0329 100.754 21.148C100.918 20.2597 100.999 19.1632 100.999 17.8623H100.499ZM99.5827 22.9248C99.0046 23.7243 97.8325 24.2464 95.9679 24.422L96.0148 24.9198C97.9236 24.74 99.2808 24.1957 99.9879 23.2178L99.5827 22.9248ZM95.9311 24.9135C97.6285 25.3345 98.7095 25.8861 99.244 26.5324L99.6293 26.2137C98.988 25.4382 97.7721 24.855 96.0515 24.4282L95.9311 24.9135ZM99.244 26.5324C99.8183 27.2268 100.155 27.848 100.28 28.3972L100.767 28.2864C100.619 27.6325 100.231 26.9411 99.6293 26.2137L99.244 26.5324ZM100.281 28.4038C100.349 28.6694 100.405 29.2003 100.443 30.0196C100.48 30.831 100.499 31.9051 100.499 33.2432H100.999C100.999 31.9016 100.98 30.8189 100.942 29.9966C100.905 29.182 100.848 28.6021 100.766 28.2798L100.281 28.4038ZM100.499 33.2432V42H100.999V33.2432H100.499ZM100.749 41.75H92.7306V42.25H100.749V41.75ZM92.9806 42V30.9668H92.4806V42H92.9806ZM92.9806 30.9668C92.9806 30.0729 92.9446 29.3414 92.8708 28.776C92.7986 28.2221 92.686 27.7892 92.5069 27.5248L92.0929 27.8053C92.201 27.9647 92.3037 28.294 92.375 28.8407C92.4448 29.3759 92.4806 30.0833 92.4806 30.9668H92.9806ZM92.51 27.5295C92.3275 27.2466 92.0109 27.0626 91.6158 26.9481C91.2185 26.833 90.7122 26.7793 90.1056 26.7793V27.2793C90.6884 27.2793 91.1425 27.3315 91.4767 27.4284C91.813 27.5258 91.9989 27.6597 92.0898 27.8006L92.51 27.5295ZM89.8556 27.0293V42H90.3556V27.0293H89.8556ZM90.1056 41.75H81.4718V42.25H90.1056V41.75ZM81.7218 42V8.79785H81.2218V42H81.7218ZM89.8556 14.4785V21.8613H90.3556V14.4785H89.8556ZM90.1056 22.1113C91.0819 22.1113 91.8263 21.9839 92.2762 21.6785L91.9955 21.2648C91.6798 21.479 91.0707 21.6113 90.1056 21.6113V22.1113ZM92.2778 21.6775C92.5565 21.4853 92.7231 21.1201 92.8256 20.6711C92.9307 20.2109 92.9806 19.607 92.9806 18.8672H92.4806C92.4806 19.5902 92.4313 20.1519 92.3382 20.5598C92.2425 20.979 92.1117 21.1846 91.9939 21.2659L92.2778 21.6775ZM92.9806 18.8672V17.042H92.4806V18.8672H92.9806ZM92.9806 17.042C92.9806 16.5026 92.9318 16.0424 92.8279 15.6678C92.7243 15.2941 92.561 14.9882 92.3191 14.7809L91.9937 15.1605C92.1346 15.2813 92.2583 15.4847 92.3461 15.8014C92.4337 16.1173 92.4806 16.5287 92.4806 17.042H92.9806ZM92.3225 14.7839C91.8793 14.3899 91.1118 14.2285 90.1056 14.2285V14.7285C91.0955 14.7285 91.6951 14.8952 91.9903 15.1576L92.3225 14.7839ZM124.482 8.79785L124.729 8.76104L124.697 8.54785H124.482V8.79785ZM129.424 42V42.25H129.714L129.671 41.9632L129.424 42ZM120.585 42L120.336 42.018L120.353 42.25H120.585V42ZM120.154 36.0322L120.404 36.0142L120.387 35.7822H120.154V36.0322ZM117.058 36.0322V35.7822H116.828L116.809 36.0108L117.058 36.0322ZM116.545 42V42.25H116.775L116.794 42.0214L116.545 42ZM107.604 42L107.356 41.9672L107.318 42.25H107.604V42ZM111.992 8.79785V8.54785H111.773L111.744 8.76509L111.992 8.79785ZM119.908 30.1465V30.3965H120.189L120.157 30.1176L119.908 30.1465ZM118.596 16.2217L118.845 16.2019L118.348 16.1875L118.596 16.2217ZM116.955 30.1465L116.706 30.1279L116.686 30.3965H116.955V30.1465ZM124.234 8.83466L129.177 42.0368L129.671 41.9632L124.729 8.76104L124.234 8.83466ZM129.424 41.75H120.585V42.25H129.424V41.75ZM120.834 41.982L120.404 36.0142L119.905 36.0502L120.336 42.018L120.834 41.982ZM120.154 35.7822H117.058V36.2822H120.154V35.7822ZM116.809 36.0108L116.296 41.9786L116.794 42.0214L117.307 36.0536L116.809 36.0108ZM116.545 41.75H107.604V42.25H116.545V41.75ZM107.852 42.0328L112.24 8.83061L111.744 8.76509L107.356 41.9672L107.852 42.0328ZM111.992 9.04785H124.482V8.54785H111.992V9.04785ZM120.157 30.1176C119.72 26.3619 119.282 21.7236 118.845 16.2019L118.347 16.2414C118.784 21.7667 119.222 26.4115 119.66 30.1754L120.157 30.1176ZM118.348 16.1875C117.473 22.5319 116.925 27.1801 116.706 30.1279L117.205 30.165C117.423 27.2339 117.969 22.5989 118.844 16.2558L118.348 16.1875ZM116.955 30.3965H119.908V29.8965H116.955V30.3965ZM146.922 8.79785H147.172V8.54785H146.922V8.79785ZM146.82 37.4062L147.069 37.4243L147.069 37.4241L146.82 37.4062ZM145.876 39.9697L145.674 39.822L145.673 39.8244L145.876 39.9697ZM143.62 41.5693L143.693 41.8085L143.695 41.8078L143.62 41.5693ZM135.007 42H134.757V42.25H135.007V42ZM135.007 36.1963L135.027 35.9471L134.757 35.9258V36.1963H135.007ZM138.288 8.79785V8.54785H138.038V8.79785H138.288ZM146.672 8.79785V30.9873H147.172V8.79785H146.672ZM146.672 30.9873C146.672 34.312 146.638 36.4421 146.57 37.3884L147.069 37.4241C147.138 36.4564 147.172 34.3071 147.172 30.9873H146.672ZM146.57 37.3882C146.505 38.2846 146.207 39.0942 145.674 39.822L146.078 40.1174C146.666 39.314 146.997 38.4147 147.069 37.4243L146.57 37.3882ZM145.673 39.8244C145.16 40.5428 144.454 41.0452 143.545 41.3308L143.695 41.8078C144.7 41.4919 145.499 40.9279 146.08 40.115L145.673 39.8244ZM143.548 41.3302C142.641 41.6062 141.242 41.75 139.334 41.75V42.25C141.254 42.25 142.713 42.1067 143.693 41.8085L143.548 41.3302ZM139.334 41.75H135.007V42.25H139.334V41.75ZM135.257 42V36.1963H134.757V42H135.257ZM134.987 36.4455C135.507 36.4866 135.892 36.5078 136.135 36.5078V36.0078C135.913 36.0078 135.546 35.988 135.027 35.9471L134.987 36.4455ZM136.135 36.5078C136.79 36.5078 137.339 36.3473 137.753 35.9975L137.43 35.6158C137.132 35.8676 136.71 36.0078 136.135 36.0078V36.5078ZM137.753 35.9975C138.153 35.6587 138.391 35.2337 138.454 34.7302L137.958 34.6682C137.912 35.0397 137.74 35.353 137.43 35.6158L137.753 35.9975ZM138.454 34.7302C138.511 34.2749 138.538 33.412 138.538 32.1562H138.038C138.038 33.4161 138.011 34.2485 137.958 34.6682L138.454 34.7302ZM138.538 32.1562V8.79785H138.038V32.1562H138.538ZM138.288 9.04785H146.922V8.54785H138.288V9.04785ZM155.725 8.79785V8.54785H155.475V8.79785H155.725ZM170.121 8.79785H170.371V8.54785H170.121V8.79785ZM170.121 15.4424V15.6924H170.371V15.4424H170.121ZM164.359 15.4424V15.1924H164.109V15.4424H164.359ZM164.359 21.7383H164.109V21.9883H164.359V21.7383ZM169.752 21.7383H170.002V21.4883H169.752V21.7383ZM169.752 28.0547V28.3047H170.002V28.0547H169.752ZM164.359 28.0547V27.8047H164.109V28.0547H164.359ZM164.359 35.3555H164.109V35.6055H164.359V35.3555ZM170.696 35.3555H170.946V35.1055H170.696V35.3555ZM170.696 42V42.25H170.946V42H170.696ZM155.725 42H155.475V42.25H155.725V42ZM155.725 9.04785H170.121V8.54785H155.725V9.04785ZM169.871 8.79785V15.4424H170.371V8.79785H169.871ZM170.121 15.1924H164.359V15.6924H170.121V15.1924ZM164.109 15.4424V21.7383H164.609V15.4424H164.109ZM164.359 21.9883H169.752V21.4883H164.359V21.9883ZM169.502 21.7383V28.0547H170.002V21.7383H169.502ZM169.752 27.8047H164.359V28.3047H169.752V27.8047ZM164.109 28.0547V35.3555H164.609V28.0547H164.109ZM164.359 35.6055H170.696V35.1055H164.359V35.6055ZM170.446 35.3555V42H170.946V35.3555H170.446ZM170.696 41.75H155.725V42.25H170.696V41.75ZM155.975 42V8.79785H155.475V42H155.975ZM178.658 8.79785V8.54785H178.408V8.79785H178.658ZM193.033 9.26953L192.98 9.51374L192.98 9.51385L193.033 9.26953ZM196.561 11.6895L196.355 11.8321L196.357 11.8346L196.561 11.6895ZM193.177 24.6709L193.154 24.422L193.117 24.9135L193.177 24.6709ZM197.709 28.3418L197.465 28.3972L197.467 28.4038L197.709 28.3418ZM197.935 42V42.25H198.185V42H197.935ZM189.916 42H189.666V42.25H189.916V42ZM189.486 27.665L189.275 27.8006L189.279 27.8053L189.486 27.665ZM187.291 27.0293V26.7793H187.041V27.0293H187.291ZM187.291 42V42.25H187.541V42H187.291ZM178.658 42H178.408V42.25H178.658V42ZM187.291 14.4785V14.2285H187.041V14.4785H187.291ZM187.291 21.8613H187.041V22.1113H187.291V21.8613ZM189.322 21.4717L189.462 21.6786L189.463 21.6775L189.322 21.4717ZM189.342 14.9707L189.176 15.1576L189.179 15.1605L189.342 14.9707ZM178.658 9.04785H184.769V8.54785H178.658V9.04785ZM184.769 9.04785C188.846 9.04785 191.575 9.20593 192.98 9.51374L193.087 9.02532C191.621 8.70423 188.84 8.54785 184.769 8.54785V9.04785ZM192.98 9.51385C194.364 9.81394 195.487 10.5814 196.356 11.8321L196.766 11.5468C195.83 10.1998 194.602 9.35403 193.086 9.02522L192.98 9.51385ZM196.357 11.8346C197.227 13.0552 197.685 15.0481 197.685 17.8623H198.185C198.185 15.0164 197.726 12.894 196.764 11.5443L196.357 11.8346ZM197.685 17.8623C197.685 19.1454 197.605 20.209 197.448 21.0571C197.291 21.9085 197.059 22.5234 196.768 22.9248L197.174 23.2178C197.526 22.7305 197.776 22.0329 197.94 21.148C198.104 20.2597 198.185 19.1632 198.185 17.8623H197.685ZM196.768 22.9248C196.19 23.7243 195.018 24.2464 193.154 24.422L193.2 24.9198C195.109 24.74 196.466 24.1957 197.174 23.2178L196.768 22.9248ZM193.117 24.9135C194.814 25.3345 195.895 25.8861 196.43 26.5324L196.815 26.2137C196.174 25.4382 194.958 24.855 193.237 24.4282L193.117 24.9135ZM196.43 26.5324C197.004 27.2268 197.341 27.848 197.465 28.3972L197.953 28.2864C197.804 27.6325 197.417 26.9411 196.815 26.2137L196.43 26.5324ZM197.467 28.4038C197.535 28.6694 197.591 29.2003 197.629 30.0196C197.666 30.831 197.685 31.9051 197.685 33.2432H198.185C198.185 31.9016 198.166 30.8189 198.128 29.9966C198.091 29.182 198.034 28.6021 197.951 28.2798L197.467 28.4038ZM197.685 33.2432V42H198.185V33.2432H197.685ZM197.935 41.75H189.916V42.25H197.935V41.75ZM190.166 42V30.9668H189.666V42H190.166ZM190.166 30.9668C190.166 30.0729 190.13 29.3414 190.057 28.776C189.984 28.2221 189.872 27.7892 189.693 27.5248L189.279 27.8053C189.387 27.9647 189.489 28.294 189.561 28.8407C189.631 29.3759 189.666 30.0833 189.666 30.9668H190.166ZM189.696 27.5295C189.513 27.2466 189.197 27.0626 188.802 26.9481C188.404 26.833 187.898 26.7793 187.291 26.7793V27.2793C187.874 27.2793 188.328 27.3315 188.662 27.4284C188.999 27.5258 189.185 27.6597 189.276 27.8006L189.696 27.5295ZM187.041 27.0293V42H187.541V27.0293H187.041ZM187.291 41.75H178.658V42.25H187.291V41.75ZM178.908 42V8.79785H178.408V42H178.908ZM187.041 14.4785V21.8613H187.541V14.4785H187.041ZM187.291 22.1113C188.268 22.1113 189.012 21.9839 189.462 21.6785L189.181 21.2648C188.866 21.479 188.256 21.6113 187.291 21.6113V22.1113ZM189.463 21.6775C189.742 21.4853 189.909 21.1201 190.011 20.6711C190.116 20.2109 190.166 19.607 190.166 18.8672H189.666C189.666 19.5902 189.617 20.1519 189.524 20.5598C189.428 20.979 189.297 21.1846 189.18 21.2659L189.463 21.6775ZM190.166 18.8672V17.042H189.666V18.8672H190.166ZM190.166 17.042C190.166 16.5026 190.117 16.0424 190.014 15.6678C189.91 15.2941 189.747 14.9882 189.505 14.7809L189.179 15.1605C189.32 15.2813 189.444 15.4847 189.532 15.8014C189.619 16.1173 189.666 16.5287 189.666 17.042H190.166ZM189.508 14.7839C189.065 14.3899 188.297 14.2285 187.291 14.2285V14.7285C188.281 14.7285 188.881 14.8952 189.176 15.1576L189.508 14.7839ZM215.392 8.79785H215.642V8.54785H215.392V8.79785ZM215.392 42V42.25H215.642V42H215.392ZM206.758 42H206.508V42.25H206.758V42ZM206.758 8.79785V8.54785H206.508V8.79785H206.758ZM215.142 8.79785V42H215.642V8.79785H215.142ZM215.392 41.75H206.758V42.25H215.392V41.75ZM207.008 42V8.79785H206.508V42H207.008ZM206.758 9.04785H215.392V8.54785H206.758V9.04785ZM239.227 8.79785L239.474 8.76104L239.442 8.54785H239.227V8.79785ZM244.169 42V42.25H244.459L244.417 41.9632L244.169 42ZM235.33 42L235.081 42.018L235.098 42.25H235.33V42ZM234.9 36.0322L235.149 36.0142L235.132 35.7822H234.9V36.0322ZM231.803 36.0322V35.7822H231.574L231.554 36.0108L231.803 36.0322ZM231.29 42V42.25H231.52L231.539 42.0214L231.29 42ZM222.349 42L222.101 41.9672L222.064 42.25H222.349V42ZM226.738 8.79785V8.54785H226.519L226.49 8.76509L226.738 8.79785ZM234.654 30.1465V30.3965H234.934L234.902 30.1176L234.654 30.1465ZM233.341 16.2217L233.59 16.2019L233.094 16.1875L233.341 16.2217ZM231.701 30.1465L231.451 30.1279L231.431 30.3965H231.701V30.1465ZM238.98 8.83466L243.922 42.0368L244.417 41.9632L239.474 8.76104L238.98 8.83466ZM244.169 41.75H235.33V42.25H244.169V41.75ZM235.58 41.982L235.149 36.0142L234.65 36.0502L235.081 42.018L235.58 41.982ZM234.9 35.7822H231.803V36.2822H234.9V35.7822ZM231.554 36.0108L231.041 41.9786L231.539 42.0214L232.052 36.0536L231.554 36.0108ZM231.29 41.75H222.349V42.25H231.29V41.75ZM222.597 42.0328L226.985 8.83061L226.49 8.76509L222.101 41.9672L222.597 42.0328ZM226.738 9.04785H239.227V8.54785H226.738V9.04785ZM234.902 30.1176C234.465 26.3619 234.028 21.7236 233.59 16.2019L233.092 16.2414C233.53 21.7667 233.967 26.4115 234.405 30.1754L234.902 30.1176ZM233.094 16.1875C232.218 22.5319 231.671 27.1801 231.451 30.1279L231.95 30.165C232.168 27.2339 232.714 22.5989 233.589 16.2558L233.094 16.1875ZM231.701 30.3965H234.654V29.8965H231.701V30.3965Z" fill="#C8AE00"/>
<path d="M0.543457 74L3.71191 59.0088H6.84961L4.22461 71.375H9.47461L8.9209 74H0.543457ZM9.83842 74L17.6929 59.0088H21.5176L23.0249 74H19.9795L19.7334 70.4316H14.8833L13.1197 74H9.83842ZM16.1651 67.7656H19.5796L19.313 63.8999C19.2857 63.4897 19.2583 63.0762 19.231 62.6592C19.2037 62.2422 19.1968 61.8149 19.2105 61.3774H19.1592C19.0293 61.7534 18.8789 62.1294 18.708 62.5054C18.5371 62.8813 18.3457 63.2812 18.1338 63.7051L16.1651 67.7656ZM30.7047 74L33.8732 59.0088H37.0109L34.3859 71.375H39.6359L39.0821 74H30.7047ZM41.8044 74L44.9728 59.0088H48.1105L45.4855 71.375H50.7355L50.1818 74H41.8044ZM51.0993 74L58.9538 59.0088H62.7785L64.2858 74H61.2404L60.9943 70.4316H56.1442L54.3806 74H51.0993ZM57.426 67.7656H60.8405L60.5739 63.8999C60.5466 63.4897 60.5192 63.0762 60.4919 62.6592C60.4646 62.2422 60.4577 61.8149 60.4714 61.3774H60.4201C60.2902 61.7534 60.1398 62.1294 59.9689 62.5054C59.798 62.8813 59.6066 63.2812 59.3947 63.7051L57.426 67.7656ZM68.946 74L67.6438 59.0088H70.6687L71.1916 68.0322C71.2122 68.3193 71.2224 68.6372 71.2224 68.9858C71.2292 69.3345 71.2292 69.6797 71.2224 70.0215C71.2156 70.3633 71.1985 70.6675 71.1711 70.9341H71.2634C71.3591 70.6265 71.4651 70.312 71.5813 69.9907C71.6975 69.6694 71.824 69.3447 71.9607 69.0166C72.0974 68.6816 72.241 68.3535 72.3913 68.0322L76.8005 59.0088H80.0408L72.3708 74H68.946ZM78.8972 74L82.0657 59.0088H90.4534L89.8997 61.6133H84.6497L83.9627 64.9048H88.8538L88.2898 67.5093H83.3987L82.5784 71.375H87.8284L87.2747 74H78.8972ZM113.564 74L116.733 59.0088H120.876L121.542 70.2163H121.634L127.264 59.0088H131.601L128.433 74H125.562L127.048 66.9043C127.151 66.4326 127.267 65.9268 127.397 65.3867C127.527 64.8467 127.66 64.3135 127.797 63.7871C127.934 63.2607 128.057 62.7925 128.166 62.3823H128.074L122.239 74H119.358L118.732 62.3823H118.65C118.616 62.6831 118.558 63.0898 118.476 63.6025C118.394 64.1152 118.298 64.6724 118.189 65.2739C118.086 65.8687 117.974 66.4531 117.851 67.0273L116.384 74H113.564ZM138.328 74.2051C137.111 74.2051 136.089 73.9692 135.262 73.4976C134.441 73.0259 133.819 72.3628 133.396 71.5083C132.972 70.647 132.76 69.6421 132.76 68.4937C132.76 67.7144 132.828 66.9351 132.965 66.1558C133.108 65.3765 133.32 64.6245 133.601 63.8999C133.888 63.1753 134.247 62.502 134.677 61.8799C135.115 61.2578 135.627 60.7144 136.215 60.2495C136.803 59.7847 137.47 59.4224 138.215 59.1626C138.96 58.9028 139.787 58.7729 140.696 58.7729C142.515 58.7729 143.882 59.2856 144.798 60.311C145.721 61.3296 146.182 62.6865 146.182 64.3818C146.182 65.1953 146.114 66.002 145.977 66.8018C145.847 67.6016 145.642 68.3672 145.362 69.0986C145.088 69.8301 144.736 70.5068 144.306 71.1289C143.882 71.7441 143.379 72.2842 142.798 72.749C142.217 73.207 141.554 73.5659 140.809 73.8257C140.071 74.0786 139.244 74.2051 138.328 74.2051ZM138.553 71.5391C138.963 71.5391 139.356 71.4639 139.732 71.3135C140.108 71.1631 140.46 70.9478 140.789 70.6675C141.117 70.3804 141.414 70.0317 141.681 69.6216C141.954 69.2046 142.187 68.7363 142.378 68.2168C142.569 67.6904 142.716 67.1128 142.819 66.4839C142.928 65.855 142.983 65.1816 142.983 64.4639C142.983 63.541 142.768 62.8027 142.337 62.249C141.913 61.6953 141.281 61.4185 140.44 61.4185C140.009 61.4185 139.596 61.5039 139.199 61.6748C138.81 61.8457 138.447 62.0884 138.112 62.4028C137.784 62.7173 137.487 63.0898 137.22 63.5205C136.954 63.9512 136.725 64.4297 136.533 64.9561C136.342 65.4824 136.195 66.043 136.092 66.6377C135.997 67.2324 135.949 67.8511 135.949 68.4937C135.949 69.1567 136.051 69.7173 136.256 70.1753C136.461 70.6265 136.759 70.9683 137.148 71.2007C137.538 71.4263 138.006 71.5391 138.553 71.5391ZM147.382 74L150.55 59.0088H154.211L157.697 70.0522H157.779C157.827 69.7583 157.889 69.3789 157.964 68.9141C158.039 68.4424 158.121 67.957 158.21 67.458C158.306 66.9521 158.395 66.501 158.477 66.1045L159.984 59.0088H162.793L159.625 74H156.118L152.468 62.6592H152.365C152.358 62.7412 152.331 62.9395 152.283 63.2539C152.242 63.5684 152.188 63.9478 152.119 64.3921C152.058 64.8296 151.989 65.2773 151.914 65.7354C151.839 66.1865 151.764 66.5898 151.688 66.9453L150.202 74H147.382ZM165.418 74L168.023 61.6543H164.414L164.978 59.0088H175.334L174.77 61.6543H171.15L168.546 74H165.418ZM174.391 74L177.559 59.0088H185.947L185.393 61.6133H180.143L179.456 64.9048H184.347L183.783 67.5093H178.892L178.072 71.375H183.322L182.768 74H174.391ZM188.418 74L187.116 59.0088H190.141L190.664 68.0322C190.684 68.3193 190.694 68.6372 190.694 68.9858C190.701 69.3345 190.701 69.6797 190.694 70.0215C190.688 70.3633 190.67 70.6675 190.643 70.9341H190.735C190.831 70.6265 190.937 70.312 191.053 69.9907C191.169 69.6694 191.296 69.3447 191.433 69.0166C191.569 68.6816 191.713 68.3535 191.863 68.0322L196.272 59.0088H199.513L191.843 74H188.418ZM198.139 74L201.328 59.0088H204.465L201.266 74H198.139ZM204.886 74L208.054 59.0088H212.115C213.954 59.0088 215.379 59.4941 216.391 60.4648C217.402 61.4355 217.908 62.8403 217.908 64.6792C217.908 65.814 217.789 66.8633 217.549 67.8271C217.31 68.791 216.958 69.6558 216.493 70.4214C216.035 71.1802 215.464 71.8262 214.781 72.3594C214.104 72.8926 213.325 73.2993 212.443 73.5796C211.561 73.8599 210.584 74 209.51 74H204.886ZM208.567 71.375H209.654C210.344 71.375 210.959 71.2622 211.5 71.0366C212.046 70.8042 212.518 70.4829 212.915 70.0728C213.318 69.6626 213.649 69.1841 213.909 68.6372C214.176 68.0903 214.374 67.4956 214.504 66.853C214.634 66.2036 214.699 65.5337 214.699 64.8433C214.699 63.7427 214.442 62.9292 213.93 62.4028C213.417 61.8765 212.713 61.6133 211.817 61.6133H210.638L208.567 71.375ZM219.098 74L222.266 59.0088H230.654L230.1 61.6133H224.85L224.163 64.9048H229.054L228.49 67.5093H223.599L222.779 71.375H228.029L227.475 74H219.098ZM236.765 74.2051C235.548 74.2051 234.526 73.9692 233.699 73.4976C232.879 73.0259 232.257 72.3628 231.833 71.5083C231.409 70.647 231.197 69.6421 231.197 68.4937C231.197 67.7144 231.266 66.9351 231.402 66.1558C231.546 65.3765 231.758 64.6245 232.038 63.8999C232.325 63.1753 232.684 62.502 233.115 61.8799C233.552 61.2578 234.065 60.7144 234.653 60.2495C235.241 59.7847 235.907 59.4224 236.652 59.1626C237.397 58.9028 238.225 58.7729 239.134 58.7729C240.952 58.7729 242.319 59.2856 243.235 60.311C244.158 61.3296 244.62 62.6865 244.62 64.3818C244.62 65.1953 244.551 66.002 244.415 66.8018C244.285 67.6016 244.08 68.3672 243.799 69.0986C243.526 69.8301 243.174 70.5068 242.743 71.1289C242.319 71.7441 241.817 72.2842 241.236 72.749C240.655 73.207 239.992 73.5659 239.247 73.8257C238.508 74.0786 237.681 74.2051 236.765 74.2051ZM236.991 71.5391C237.401 71.5391 237.794 71.4639 238.17 71.3135C238.546 71.1631 238.898 70.9478 239.226 70.6675C239.554 70.3804 239.852 70.0317 240.118 69.6216C240.392 69.2046 240.624 68.7363 240.815 68.2168C241.007 67.6904 241.154 67.1128 241.256 66.4839C241.366 65.855 241.42 65.1816 241.42 64.4639C241.42 63.541 241.205 62.8027 240.774 62.249C240.351 61.6953 239.718 61.4185 238.877 61.4185C238.447 61.4185 238.033 61.5039 237.637 61.6748C237.247 61.8457 236.885 62.0884 236.55 62.4028C236.222 62.7173 235.924 63.0898 235.658 63.5205C235.391 63.9512 235.162 64.4297 234.971 64.9561C234.779 65.4824 234.632 66.043 234.53 66.6377C234.434 67.2324 234.386 67.8511 234.386 68.4937C234.386 69.1567 234.489 69.7173 234.694 70.1753C234.899 70.6265 235.196 70.9683 235.586 71.2007C235.976 71.4263 236.444 71.5391 236.991 71.5391Z" fill="#F44336"/>
<path d="M0.543457 74L0.29886 73.9483L0.235096 74.25H0.543457V74ZM3.71191 59.0088V58.7588H3.50923L3.46732 58.9571L3.71191 59.0088ZM6.84961 59.0088L7.09416 59.0607L7.15825 58.7588H6.84961V59.0088ZM4.22461 71.375L3.98006 71.3231L3.91597 71.625H4.22461V71.375ZM9.47461 71.375L9.71923 71.4266L9.78285 71.125H9.47461V71.375ZM8.9209 74V74.25H9.12367L9.16552 74.0516L8.9209 74ZM0.788054 74.0517L3.95651 59.0605L3.46732 58.9571L0.29886 73.9483L0.788054 74.0517ZM3.71191 59.2588H6.84961V58.7588H3.71191V59.2588ZM6.60506 58.9569L3.98006 71.3231L4.46916 71.4269L7.09416 59.0607L6.60506 58.9569ZM4.22461 71.625H9.47461V71.125H4.22461V71.625ZM9.22999 71.3234L8.67628 73.9484L9.16552 74.0516L9.71923 71.4266L9.22999 71.3234ZM8.9209 73.75H0.543457V74.25H8.9209V73.75ZM9.83842 74L9.61697 73.884L9.4252 74.25H9.83842V74ZM17.6929 59.0088V58.7588H17.5417L17.4715 58.8928L17.6929 59.0088ZM21.5176 59.0088L21.7664 58.9838L21.7437 58.7588H21.5176V59.0088ZM23.0249 74V74.25H23.3013L23.2737 73.975L23.0249 74ZM19.9795 74L19.7301 74.0172L19.7462 74.25H19.9795V74ZM19.7334 70.4316L19.9828 70.4144L19.9668 70.1816H19.7334V70.4316ZM14.8833 70.4316V70.1816H14.728L14.6592 70.3209L14.8833 70.4316ZM13.1197 74V74.25H13.275L13.3438 74.1108L13.1197 74ZM16.1651 67.7656L15.9401 67.6566L15.766 68.0156H16.1651V67.7656ZM19.5796 67.7656V68.0156H19.8475L19.829 67.7484L19.5796 67.7656ZM19.313 63.8999L19.0636 63.9165L19.0636 63.9171L19.313 63.8999ZM19.2105 61.3774L19.4604 61.3853L19.4684 61.1274H19.2105V61.3774ZM19.1592 61.3774V61.1274H18.9811L18.9229 61.2958L19.1592 61.3774ZM18.1338 63.7051L17.9102 63.5933L17.9089 63.596L18.1338 63.7051ZM10.0599 74.116L17.9144 59.1248L17.4715 58.8928L9.61697 73.884L10.0599 74.116ZM17.6929 59.2588H21.5176V58.7588H17.6929V59.2588ZM21.2689 59.0338L22.7762 74.025L23.2737 73.975L21.7664 58.9838L21.2689 59.0338ZM23.0249 73.75H19.9795V74.25H23.0249V73.75ZM20.2289 73.9828L19.9828 70.4144L19.484 70.4488L19.7301 74.0172L20.2289 73.9828ZM19.7334 70.1816H14.8833V70.6816H19.7334V70.1816ZM14.6592 70.3209L12.8955 73.8892L13.3438 74.1108L15.1075 70.5424L14.6592 70.3209ZM13.1197 73.75H9.83842V74.25H13.1197V73.75ZM16.1651 68.0156H19.5796V67.5156H16.1651V68.0156ZM19.829 67.7484L19.5624 63.8827L19.0636 63.9171L19.3302 67.7828L19.829 67.7484ZM19.5625 63.8833C19.5351 63.4732 19.5078 63.0597 19.4805 62.6428L18.9815 62.6755C19.0089 63.0926 19.0362 63.5063 19.0636 63.9165L19.5625 63.8833ZM19.4805 62.6428C19.4537 62.2342 19.4469 61.8151 19.4604 61.3853L18.9606 61.3696C18.9467 61.8148 18.9536 62.2501 18.9815 62.6755L19.4805 62.6428ZM19.2105 61.1274H19.1592V61.6274H19.2105V61.1274ZM18.9229 61.2958C18.7957 61.6641 18.6482 62.0328 18.4805 62.4019L18.9356 62.6088C19.1097 62.226 19.263 61.8427 19.3955 61.4591L18.9229 61.2958ZM18.4805 62.4019C18.311 62.7747 18.121 63.1718 17.9102 63.5933L18.3574 63.8169C18.5705 63.3907 18.7633 62.988 18.9356 62.6088L18.4805 62.4019ZM17.9089 63.596L15.9401 67.6566L16.39 67.8747L18.3588 63.8141L17.9089 63.596ZM30.7047 74L30.4601 73.9483L30.3963 74.25H30.7047V74ZM33.8732 59.0088V58.7588H33.6705L33.6286 58.9571L33.8732 59.0088ZM37.0109 59.0088L37.2554 59.0607L37.3195 58.7588H37.0109V59.0088ZM34.3859 71.375L34.1413 71.3231L34.0772 71.625H34.3859V71.375ZM39.6359 71.375L39.8805 71.4266L39.9441 71.125H39.6359V71.375ZM39.0821 74V74.25H39.2849L39.3268 74.0516L39.0821 74ZM30.9493 74.0517L34.1178 59.0605L33.6286 58.9571L30.4601 73.9483L30.9493 74.0517ZM33.8732 59.2588H37.0109V58.7588H33.8732V59.2588ZM36.7663 58.9569L34.1413 71.3231L34.6304 71.4269L37.2554 59.0607L36.7663 58.9569ZM34.3859 71.625H39.6359V71.125H34.3859V71.625ZM39.3912 71.3234L38.8375 73.9484L39.3268 74.0516L39.8805 71.4266L39.3912 71.3234ZM39.0821 73.75H30.7047V74.25H39.0821V73.75ZM41.8044 74L41.5598 73.9483L41.496 74.25H41.8044V74ZM44.9728 59.0088V58.7588H44.7701L44.7282 58.9571L44.9728 59.0088ZM48.1105 59.0088L48.3551 59.0607L48.4191 58.7588H48.1105V59.0088ZM45.4855 71.375L45.241 71.3231L45.1769 71.625H45.4855V71.375ZM50.7355 71.375L50.9801 71.4266L51.0437 71.125H50.7355V71.375ZM50.1818 74V74.25H50.3846L50.4264 74.0516L50.1818 74ZM42.049 74.0517L45.2174 59.0605L44.7282 58.9571L41.5598 73.9483L42.049 74.0517ZM44.9728 59.2588H48.1105V58.7588H44.9728V59.2588ZM47.866 58.9569L45.241 71.3231L45.7301 71.4269L48.3551 59.0607L47.866 58.9569ZM45.4855 71.625H50.7355V71.125H45.4855V71.625ZM50.4909 71.3234L49.9372 73.9484L50.4264 74.0516L50.9801 71.4266L50.4909 71.3234ZM50.1818 73.75H41.8044V74.25H50.1818V73.75ZM51.0993 74L50.8779 73.884L50.6861 74.25H51.0993V74ZM58.9538 59.0088V58.7588H58.8026L58.7324 58.8928L58.9538 59.0088ZM62.7785 59.0088L63.0273 58.9838L63.0046 58.7588H62.7785V59.0088ZM64.2858 74V74.25H64.5622L64.5346 73.975L64.2858 74ZM61.2404 74L60.991 74.0172L61.0071 74.25H61.2404V74ZM60.9943 70.4316L61.2437 70.4144L61.2277 70.1816H60.9943V70.4316ZM56.1442 70.4316V70.1816H55.9889L55.9201 70.3209L56.1442 70.4316ZM54.3806 74V74.25H54.5359L54.6047 74.1108L54.3806 74ZM57.426 67.7656L57.201 67.6566L57.0269 68.0156H57.426V67.7656ZM60.8405 67.7656V68.0156H61.1084L61.0899 67.7484L60.8405 67.7656ZM60.5739 63.8999L60.3245 63.9165L60.3245 63.9171L60.5739 63.8999ZM60.4714 61.3774L60.7213 61.3853L60.7293 61.1274H60.4714V61.3774ZM60.4201 61.3774V61.1274H60.242L60.1838 61.2958L60.4201 61.3774ZM59.3947 63.7051L59.1711 63.5933L59.1698 63.596L59.3947 63.7051ZM51.3208 74.116L59.1753 59.1248L58.7324 58.8928L50.8779 73.884L51.3208 74.116ZM58.9538 59.2588H62.7785V58.7588H58.9538V59.2588ZM62.5298 59.0338L64.0371 74.025L64.5346 73.975L63.0273 58.9838L62.5298 59.0338ZM64.2858 73.75H61.2404V74.25H64.2858V73.75ZM61.4898 73.9828L61.2437 70.4144L60.7449 70.4488L60.991 74.0172L61.4898 73.9828ZM60.9943 70.1816H56.1442V70.6816H60.9943V70.1816ZM55.9201 70.3209L54.1564 73.8892L54.6047 74.1108L56.3684 70.5424L55.9201 70.3209ZM54.3806 73.75H51.0993V74.25H54.3806V73.75ZM57.426 68.0156H60.8405V67.5156H57.426V68.0156ZM61.0899 67.7484L60.8233 63.8827L60.3245 63.9171L60.5911 67.7828L61.0899 67.7484ZM60.8234 63.8833C60.796 63.4732 60.7687 63.0597 60.7414 62.6428L60.2424 62.6755C60.2698 63.0926 60.2971 63.5063 60.3245 63.9165L60.8234 63.8833ZM60.7414 62.6428C60.7146 62.2342 60.7078 61.8151 60.7213 61.3853L60.2215 61.3696C60.2076 61.8148 60.2145 62.2501 60.2424 62.6755L60.7414 62.6428ZM60.4714 61.1274H60.4201V61.6274H60.4714V61.1274ZM60.1838 61.2958C60.0566 61.6641 59.9091 62.0328 59.7414 62.4019L60.1965 62.6088C60.3706 62.226 60.5239 61.8427 60.6564 61.4591L60.1838 61.2958ZM59.7414 62.4019C59.5719 62.7747 59.3818 63.1718 59.1711 63.5933L59.6183 63.8169C59.8314 63.3907 60.0242 62.988 60.1965 62.6088L59.7414 62.4019ZM59.1698 63.596L57.201 67.6566L57.6509 67.8747L59.6197 63.8141L59.1698 63.596ZM68.946 74L68.697 74.0216L68.7168 74.25H68.946V74ZM67.6438 59.0088V58.7588H67.3711L67.3947 59.0304L67.6438 59.0088ZM70.6687 59.0088L70.9183 58.9943L70.9046 58.7588H70.6687V59.0088ZM71.1916 68.0322L70.942 68.0467L70.9423 68.05L71.1916 68.0322ZM71.2224 68.9858H70.9724L70.9725 68.9907L71.2224 68.9858ZM71.1711 70.9341L70.9224 70.9086L70.8942 71.1841H71.1711V70.9341ZM71.2634 70.9341V71.1841H71.4475L71.5021 71.0083L71.2634 70.9341ZM71.9607 69.0166L72.1915 69.1128L72.1921 69.1111L71.9607 69.0166ZM72.3913 68.0322L72.1667 67.9225L72.1649 67.9262L72.3913 68.0322ZM76.8005 59.0088V58.7588H76.6444L76.5759 58.899L76.8005 59.0088ZM80.0408 59.0088L80.2633 59.1227L80.4495 58.7588H80.0408V59.0088ZM72.3708 74V74.25H72.5238L72.5934 74.1139L72.3708 74ZM69.1951 73.9784L67.8929 58.9872L67.3947 59.0304L68.697 74.0216L69.1951 73.9784ZM67.6438 59.2588H70.6687V58.7588H67.6438V59.2588ZM70.4191 59.0233L70.9421 68.0467L71.4412 68.0178L70.9183 58.9943L70.4191 59.0233ZM70.9423 68.05C70.9623 68.3301 70.9724 68.642 70.9724 68.9858H71.4724C71.4724 68.6325 71.462 68.3085 71.441 68.0144L70.9423 68.05ZM70.9725 68.9907C70.9792 69.3361 70.9792 69.6781 70.9725 70.0165L71.4724 70.0265C71.4793 69.6813 71.4793 69.3328 71.4724 68.9809L70.9725 68.9907ZM70.9725 70.0165C70.9657 70.3532 70.9489 70.6503 70.9224 70.9086L71.4198 70.9596C71.448 70.6846 71.4654 70.3734 71.4724 70.0265L70.9725 70.0165ZM71.1711 71.1841H71.2634V70.6841H71.1711V71.1841ZM71.5021 71.0083C71.5966 70.7046 71.7014 70.3937 71.8164 70.0758L71.3462 69.9057C71.2288 70.2303 71.1216 70.5484 71.0247 70.8598L71.5021 71.0083ZM71.8164 70.0758C71.9312 69.7584 72.0562 69.4374 72.1915 69.1128L71.7299 68.9204C71.5917 69.2521 71.4638 69.5805 71.3462 69.9057L71.8164 70.0758ZM72.1921 69.1111C72.3273 68.7799 72.4692 68.4556 72.6178 68.1382L72.1649 67.9262C72.0127 68.2514 71.8675 68.5834 71.7292 68.9221L72.1921 69.1111ZM72.616 68.142L77.0251 59.1185L76.5759 58.899L72.1667 67.9225L72.616 68.142ZM76.8005 59.2588H80.0408V58.7588H76.8005V59.2588ZM79.8182 58.8949L72.1483 73.8861L72.5934 74.1139L80.2633 59.1227L79.8182 58.8949ZM72.3708 73.75H68.946V74.25H72.3708V73.75ZM78.8972 74L78.6526 73.9483L78.5889 74.25H78.8972V74ZM82.0657 59.0088V58.7588H81.863L81.8211 58.9571L82.0657 59.0088ZM90.4534 59.0088L90.6979 59.0608L90.7621 58.7588H90.4534V59.0088ZM89.8997 61.6133V61.8633H90.1021L90.1442 61.6653L89.8997 61.6133ZM84.6497 61.6133V61.3633H84.4465L84.405 61.5622L84.6497 61.6133ZM83.9627 64.9048L83.7179 64.8537L83.6551 65.1548H83.9627V64.9048ZM88.8538 64.9048L89.0981 64.9577L89.1637 64.6548H88.8538V64.9048ZM88.2898 67.5093V67.7593H88.4915L88.5342 67.5622L88.2898 67.5093ZM83.3987 67.5093V67.2593H83.1962L83.1542 67.4574L83.3987 67.5093ZM82.5784 71.375L82.3338 71.3231L82.2698 71.625H82.5784V71.375ZM87.8284 71.375L88.073 71.4266L88.1366 71.125H87.8284V71.375ZM87.2747 74V74.25H87.4775L87.5193 74.0516L87.2747 74ZM79.1418 74.0517L82.3103 59.0605L81.8211 58.9571L78.6526 73.9483L79.1418 74.0517ZM82.0657 59.2588H90.4534V58.7588H82.0657V59.2588ZM90.2089 58.9568L89.6552 61.5613L90.1442 61.6653L90.6979 59.0608L90.2089 58.9568ZM89.8997 61.3633H84.6497V61.8633H89.8997V61.3633ZM84.405 61.5622L83.7179 64.8537L84.2074 64.9559L84.8944 61.6644L84.405 61.5622ZM83.9627 65.1548H88.8538V64.6548H83.9627V65.1548ZM88.6095 64.8519L88.0455 67.4564L88.5342 67.5622L89.0981 64.9577L88.6095 64.8519ZM88.2898 67.2593H83.3987V67.7593H88.2898V67.2593ZM83.1542 67.4574L82.3338 71.3231L82.823 71.4269L83.6433 67.5612L83.1542 67.4574ZM82.5784 71.625H87.8284V71.125H82.5784V71.625ZM87.5838 71.3234L87.0301 73.9484L87.5193 74.0516L88.073 71.4266L87.5838 71.3234ZM87.2747 73.75H78.8972V74.25H87.2747V73.75ZM113.564 74L113.32 73.9483L113.256 74.25H113.564V74ZM116.733 59.0088V58.7588H116.53L116.488 58.9571L116.733 59.0088ZM120.876 59.0088L121.125 58.9939L121.111 58.7588H120.876V59.0088ZM121.542 70.2163L121.292 70.2311L121.306 70.4663H121.542V70.2163ZM121.634 70.2163V70.4663H121.788L121.858 70.3285L121.634 70.2163ZM127.264 59.0088V58.7588H127.11L127.04 58.8966L127.264 59.0088ZM131.601 59.0088L131.846 59.0605L131.909 58.7588H131.601V59.0088ZM128.433 74V74.25H128.635L128.677 74.0517L128.433 74ZM125.562 74L125.317 73.9487L125.254 74.25H125.562V74ZM127.048 66.9043L126.804 66.8512L126.804 66.853L127.048 66.9043ZM128.166 62.3823L128.408 62.4467L128.491 62.1323H128.166V62.3823ZM128.074 62.3823V62.1323H127.92L127.85 62.2701L128.074 62.3823ZM122.239 74V74.25H122.393L122.463 74.1122L122.239 74ZM119.358 74L119.108 74.0134L119.121 74.25H119.358V74ZM118.732 62.3823L118.982 62.3689L118.969 62.1323H118.732V62.3823ZM118.65 62.3823V62.1323H118.427L118.402 62.3541L118.65 62.3823ZM118.189 65.2739L117.943 65.2292L117.943 65.2314L118.189 65.2739ZM117.851 67.0273L117.606 66.975L117.606 66.9759L117.851 67.0273ZM116.384 74V74.25H116.587L116.629 74.0514L116.384 74ZM113.809 74.0517L116.978 59.0605L116.488 58.9571L113.32 73.9483L113.809 74.0517ZM116.733 59.2588H120.876V58.7588H116.733V59.2588ZM120.626 59.0236L121.292 70.2311L121.792 70.2015L121.125 58.9939L120.626 59.0236ZM121.542 70.4663H121.634V69.9663H121.542V70.4663ZM121.858 70.3285L127.487 59.121L127.04 58.8966L121.411 70.1041L121.858 70.3285ZM127.264 59.2588H131.601V58.7588H127.264V59.2588ZM131.357 58.9571L128.188 73.9483L128.677 74.0517L131.846 59.0605L131.357 58.9571ZM128.433 73.75H125.562V74.25H128.433V73.75ZM125.806 74.0513L127.293 66.9556L126.804 66.853L125.317 73.9487L125.806 74.0513ZM127.293 66.9574C127.395 66.4878 127.511 65.9837 127.64 65.4452L127.154 65.3283C127.024 65.8698 126.907 66.3775 126.804 66.8512L127.293 66.9574ZM127.64 65.4452C127.77 64.9066 127.903 64.3748 128.039 63.85L127.555 63.7243C127.418 64.2521 127.284 64.7868 127.154 65.3283L127.64 65.4452ZM128.039 63.85C128.175 63.324 128.298 62.8563 128.408 62.4467L127.924 62.3179C127.815 62.7287 127.692 63.1975 127.555 63.7243L128.039 63.85ZM128.166 62.1323H128.074V62.6323H128.166V62.1323ZM127.85 62.2701L122.016 73.8878L122.463 74.1122L128.297 62.4945L127.85 62.2701ZM122.239 73.75H119.358V74.25H122.239V73.75ZM119.608 73.9866L118.982 62.3689L118.483 62.3958L119.108 74.0134L119.608 73.9866ZM118.732 62.1323H118.65V62.6323H118.732V62.1323ZM118.402 62.3541C118.368 62.6494 118.311 63.0519 118.229 63.563L118.723 63.642C118.805 63.1278 118.864 62.7168 118.899 62.4106L118.402 62.3541ZM118.229 63.563C118.148 64.0737 118.052 64.6291 117.943 65.2292L118.435 65.3186C118.545 64.7156 118.641 64.1567 118.723 63.642L118.229 63.563ZM117.943 65.2314C117.841 65.823 117.728 66.4041 117.606 66.975L118.095 67.0797C118.219 66.5021 118.332 65.9144 118.435 65.3164L117.943 65.2314ZM117.606 66.9759L116.14 73.9486L116.629 74.0514L118.095 67.0788L117.606 66.9759ZM116.384 73.75H113.564V74.25H116.384V73.75ZM135.262 73.4976L135.137 73.7143L135.138 73.7147L135.262 73.4976ZM133.396 71.5083L133.171 71.6187L133.172 71.6194L133.396 71.5083ZM132.965 66.1558L132.719 66.1105L132.719 66.1126L132.965 66.1558ZM133.601 63.8999L133.368 63.8078L133.367 63.8097L133.601 63.8999ZM134.677 61.8799L134.473 61.7361L134.472 61.7376L134.677 61.8799ZM144.798 60.311L144.611 60.4776L144.613 60.4789L144.798 60.311ZM145.977 66.8018L145.731 66.7596L145.73 66.7617L145.977 66.8018ZM145.362 69.0986L145.128 69.0092L145.128 69.0111L145.362 69.0986ZM144.306 71.1289L144.1 70.9866L144.1 70.9871L144.306 71.1289ZM142.798 72.749L142.953 72.9454L142.955 72.9442L142.798 72.749ZM140.809 73.8257L140.89 74.0622L140.891 74.0617L140.809 73.8257ZM140.789 70.6675L140.951 70.8576L140.953 70.8556L140.789 70.6675ZM141.681 69.6216L141.472 69.4845L141.471 69.4853L141.681 69.6216ZM142.378 68.2168L142.613 68.3032L142.613 68.3022L142.378 68.2168ZM142.819 66.4839L142.573 66.441L142.572 66.4437L142.819 66.4839ZM142.337 62.249L142.138 62.401L142.14 62.4025L142.337 62.249ZM139.199 61.6748L139.1 61.4452L139.099 61.4459L139.199 61.6748ZM138.112 62.4028L137.941 62.2206L137.939 62.2223L138.112 62.4028ZM136.092 66.6377L135.846 66.5952L135.845 66.598L136.092 66.6377ZM136.256 70.1753L136.028 70.2775L136.029 70.2787L136.256 70.1753ZM137.148 71.2007L137.02 71.4154L137.023 71.417L137.148 71.2007ZM138.328 73.9551C137.142 73.9551 136.166 73.7254 135.386 73.2804L135.138 73.7147C136.012 74.2131 137.079 74.4551 138.328 74.4551V73.9551ZM135.386 73.2808C134.609 72.834 134.022 72.2078 133.619 71.3972L133.172 71.6194C133.617 72.5178 134.274 73.2178 135.137 73.7143L135.386 73.2808ZM133.62 71.3979C133.216 70.577 133.01 69.6113 133.01 68.4937H132.51C132.51 69.6729 132.727 70.7169 133.171 71.6187L133.62 71.3979ZM133.01 68.4937C133.01 67.7291 133.077 66.9642 133.211 66.199L132.719 66.1126C132.579 66.9059 132.51 67.6997 132.51 68.4937H133.01ZM133.211 66.2011C133.352 65.4368 133.559 64.6999 133.834 63.9901L133.367 63.8097C133.081 64.5491 132.865 65.3162 132.719 66.1105L133.211 66.2011ZM133.833 63.992C134.113 63.2846 134.463 62.6281 134.883 62.0222L134.472 61.7376C134.03 62.3758 133.662 63.066 133.368 63.8078L133.833 63.992ZM134.882 62.0237C135.306 61.4211 135.802 60.8953 136.37 60.4456L136.06 60.0534C135.453 60.5334 134.924 61.0946 134.473 61.7361L134.882 62.0237ZM136.37 60.4456C136.935 59.999 137.577 59.6497 138.297 59.3987L138.133 58.9265C137.363 59.195 136.671 59.5704 136.06 60.0534L136.37 60.4456ZM138.297 59.3987C139.012 59.1494 139.811 59.0229 140.696 59.0229V58.5229C139.763 58.5229 138.908 58.6563 138.133 58.9265L138.297 59.3987ZM140.696 59.0229C142.468 59.0229 143.757 59.521 144.611 60.4776L144.984 60.1445C144.007 59.0503 142.562 58.5229 140.696 58.5229V59.0229ZM144.613 60.4789C145.485 61.4414 145.932 62.7334 145.932 64.3818H146.432C146.432 62.6396 145.957 61.2178 144.983 60.1432L144.613 60.4789ZM145.932 64.3818C145.932 65.1812 145.865 65.9738 145.731 66.7596L146.223 66.8439C146.363 66.0301 146.432 65.2094 146.432 64.3818H145.932ZM145.73 66.7617C145.603 67.5452 145.402 68.2942 145.128 69.0092L145.595 69.1881C145.882 68.4401 146.091 67.6579 146.224 66.8418L145.73 66.7617ZM145.128 69.0111C144.861 69.7238 144.519 70.3821 144.1 70.9866L144.511 71.2712C144.954 70.6316 145.316 69.9364 145.596 69.1862L145.128 69.0111ZM144.1 70.9871C143.69 71.5823 143.204 72.1043 142.642 72.5538L142.955 72.9442C143.555 72.4641 144.074 71.906 144.512 71.2707L144.1 70.9871ZM142.644 72.5527C142.086 72.9924 141.447 73.3384 140.727 73.5896L140.891 74.0617C141.661 73.7935 142.349 73.4217 142.953 72.9454L142.644 72.5527ZM140.728 73.5892C140.02 73.8318 139.221 73.9551 138.328 73.9551V74.4551C139.267 74.4551 140.122 74.3255 140.89 74.0622L140.728 73.5892ZM138.553 71.7891C138.995 71.7891 139.419 71.708 139.825 71.5456L139.64 71.0814C139.294 71.2198 138.932 71.2891 138.553 71.2891V71.7891ZM139.825 71.5456C140.228 71.3844 140.603 71.1544 140.951 70.8576L140.626 70.4774C140.317 70.7411 139.989 70.9417 139.64 71.0814L139.825 71.5456ZM140.953 70.8556C141.301 70.5517 141.613 70.185 141.89 69.7578L141.471 69.4853C141.215 69.8785 140.933 70.2091 140.624 70.4793L140.953 70.8556ZM141.89 69.7587C142.175 69.3242 142.415 68.8386 142.613 68.3032L142.143 68.1304C141.958 68.634 141.734 69.085 141.472 69.4845L141.89 69.7587ZM142.613 68.3022C142.81 67.7594 142.961 67.1664 143.066 66.5241L142.572 66.4437C142.472 67.0592 142.328 67.6215 142.143 68.1314L142.613 68.3022ZM143.065 66.5267C143.177 65.8821 143.233 65.1943 143.233 64.4639H142.733C142.733 65.169 142.679 65.8279 142.573 66.4411L143.065 66.5267ZM143.233 64.4639C143.233 63.503 143.008 62.7052 142.534 62.0955L142.14 62.4025C142.527 62.9002 142.733 63.579 142.733 64.4639H143.233ZM142.535 62.0971C142.054 61.4686 141.341 61.1685 140.44 61.1685V61.6685C141.221 61.6685 141.772 61.922 142.138 62.401L142.535 62.0971ZM140.44 61.1685C139.975 61.1685 139.528 61.2609 139.1 61.4452L139.298 61.9044C139.663 61.7469 140.043 61.6685 140.44 61.6685V61.1685ZM139.099 61.4459C138.681 61.6291 138.295 61.8882 137.941 62.2206L138.283 62.5851C138.599 62.2886 138.938 62.0623 139.3 61.9038L139.099 61.4459ZM137.939 62.2223C137.594 62.5529 137.284 62.9424 137.008 63.3889L137.433 63.6521C137.69 63.2373 137.974 62.8817 138.285 62.5833L137.939 62.2223ZM137.008 63.3889C136.731 63.8356 136.495 64.3298 136.298 64.8706L136.768 65.0415C136.954 64.5296 137.176 64.0667 137.433 63.6521L137.008 63.3889ZM136.298 64.8706C136.101 65.412 135.951 65.987 135.846 66.5952L136.339 66.6802C136.439 66.099 136.582 65.5529 136.768 65.0415L136.298 64.8706ZM135.845 66.598C135.748 67.2067 135.699 67.8386 135.699 68.4937H136.199C136.199 67.8635 136.246 67.2582 136.339 66.6774L135.845 66.598ZM135.699 68.4937C135.699 69.1812 135.805 69.7788 136.028 70.2775L136.485 70.0731C136.298 69.6558 136.199 69.1323 136.199 68.4937H135.699ZM136.029 70.2787C136.253 70.7718 136.583 71.1545 137.02 71.4154L137.277 70.986C136.935 70.7821 136.67 70.4811 136.484 70.0718L136.029 70.2787ZM137.023 71.417C137.458 71.6689 137.972 71.7891 138.553 71.7891V71.2891C138.041 71.2891 137.618 71.1836 137.274 70.9843L137.023 71.417ZM147.382 74L147.137 73.9483L147.073 74.25H147.382V74ZM150.55 59.0088V58.7588H150.348L150.306 58.9571L150.55 59.0088ZM154.211 59.0088L154.449 58.9335L154.394 58.7588H154.211V59.0088ZM157.697 70.0522L157.459 70.1275L157.514 70.3022H157.697V70.0522ZM157.779 70.0522V70.3022H157.992L158.026 70.0924L157.779 70.0522ZM157.964 68.9141L158.211 68.954L158.211 68.9534L157.964 68.9141ZM158.21 67.458L157.964 67.4115L157.964 67.4142L158.21 67.458ZM158.477 66.1045L158.232 66.0525L158.232 66.0538L158.477 66.1045ZM159.984 59.0088V58.7588H159.781L159.739 58.9568L159.984 59.0088ZM162.793 59.0088L163.038 59.0605L163.102 58.7588H162.793V59.0088ZM159.625 74V74.25H159.828L159.87 74.0517L159.625 74ZM156.118 74L155.88 74.0766L155.936 74.25H156.118V74ZM152.468 62.6592L152.706 62.5826L152.65 62.4092H152.468V62.6592ZM152.365 62.6592V62.4092H152.135L152.116 62.6384L152.365 62.6592ZM152.283 63.2539L152.036 63.2163L152.035 63.2216L152.283 63.2539ZM152.119 64.3921L151.872 64.3541L151.872 64.3573L152.119 64.3921ZM151.914 65.7354L152.161 65.7765L152.161 65.7759L151.914 65.7354ZM151.688 66.9453L151.444 66.8936L151.444 66.8938L151.688 66.9453ZM150.202 74V74.25H150.404L150.446 74.0516L150.202 74ZM147.626 74.0517L150.795 59.0605L150.306 58.9571L147.137 73.9483L147.626 74.0517ZM150.55 59.2588H154.211V58.7588H150.55V59.2588ZM153.973 59.0841L157.459 70.1275L157.936 69.977L154.449 58.9335L153.973 59.0841ZM157.697 70.3022H157.779V69.8022H157.697V70.3022ZM158.026 70.0924C158.074 69.7984 158.135 69.4189 158.211 68.954L157.717 68.8741C157.642 69.3389 157.58 69.7182 157.533 70.0121L158.026 70.0924ZM158.211 68.9534C158.286 68.4833 158.367 67.9995 158.456 67.5018L157.964 67.4142C157.875 67.9146 157.792 68.4014 157.717 68.8747L158.211 68.9534ZM158.456 67.5045C158.551 66.9997 158.64 66.5499 158.721 66.1551L158.232 66.0538C158.149 66.452 158.06 66.9046 157.964 67.4115L158.456 67.5045ZM158.721 66.1564L160.228 59.0607L159.739 58.9568L158.232 66.0525L158.721 66.1564ZM159.984 59.2588H162.793V58.7588H159.984V59.2588ZM162.549 58.9571L159.38 73.9483L159.87 74.0517L163.038 59.0605L162.549 58.9571ZM159.625 73.75H156.118V74.25H159.625V73.75ZM156.356 73.9234L152.706 62.5826L152.23 62.7358L155.88 74.0766L156.356 73.9234ZM152.468 62.4092H152.365V62.9092H152.468V62.4092ZM152.116 62.6384C152.11 62.7101 152.084 62.8989 152.036 63.2163L152.53 63.2915C152.578 62.98 152.607 62.7723 152.614 62.6799L152.116 62.6384ZM152.035 63.2216C151.995 63.5335 151.94 63.9109 151.872 64.3541L152.366 64.4301C152.435 63.9846 152.49 63.6032 152.531 63.2862L152.035 63.2216ZM151.872 64.3573C151.81 64.7928 151.742 65.2386 151.667 65.6948L152.161 65.7759C152.236 65.316 152.305 64.8664 152.367 64.4269L151.872 64.3573ZM151.667 65.6943C151.593 66.1427 151.518 66.5424 151.444 66.8936L151.933 66.9971C152.009 66.6373 152.085 66.2303 152.161 65.7765L151.667 65.6943ZM151.444 66.8938L149.957 73.9484L150.446 74.0516L151.933 66.9969L151.444 66.8938ZM150.202 73.75H147.382V74.25H150.202V73.75ZM165.418 74L165.174 73.9484L165.11 74.25H165.418V74ZM168.023 61.6543L168.268 61.7059L168.331 61.4043H168.023V61.6543ZM164.414 61.6543L164.169 61.6022L164.105 61.9043H164.414V61.6543ZM164.978 59.0088V58.7588H164.775L164.733 58.9567L164.978 59.0088ZM175.334 59.0088L175.579 59.0609L175.643 58.7588H175.334V59.0088ZM174.77 61.6543V61.9043H174.972L175.015 61.7064L174.77 61.6543ZM171.15 61.6543V61.4043H170.948L170.906 61.6027L171.15 61.6543ZM168.546 74V74.25H168.749L168.791 74.0516L168.546 74ZM165.663 74.0516L168.268 61.7059L167.778 61.6027L165.174 73.9484L165.663 74.0516ZM168.023 61.4043H164.414V61.9043H168.023V61.4043ZM164.658 61.7064L165.222 59.0609L164.733 58.9567L164.169 61.6022L164.658 61.7064ZM164.978 59.2588H175.334V58.7588H164.978V59.2588ZM175.089 58.9567L174.526 61.6022L175.015 61.7064L175.579 59.0609L175.089 58.9567ZM174.77 61.4043H171.15V61.9043H174.77V61.4043ZM170.906 61.6027L168.301 73.9484L168.791 74.0516L171.395 61.7059L170.906 61.6027ZM168.546 73.75H165.418V74.25H168.546V73.75ZM174.391 74L174.146 73.9483L174.082 74.25H174.391V74ZM177.559 59.0088V58.7588H177.356L177.314 58.9571L177.559 59.0088ZM185.947 59.0088L186.191 59.0608L186.256 58.7588H185.947V59.0088ZM185.393 61.6133V61.8633H185.596L185.638 61.6653L185.393 61.6133ZM180.143 61.6133V61.3633H179.94L179.898 61.5622L180.143 61.6133ZM179.456 64.9048L179.211 64.8537L179.148 65.1548H179.456V64.9048ZM184.347 64.9048L184.592 64.9577L184.657 64.6548H184.347V64.9048ZM183.783 67.5093V67.7593H183.985L184.028 67.5622L183.783 67.5093ZM178.892 67.5093V67.2593H178.69L178.648 67.4574L178.892 67.5093ZM178.072 71.375L177.827 71.3231L177.763 71.625H178.072V71.375ZM183.322 71.375L183.566 71.4266L183.63 71.125H183.322V71.375ZM182.768 74V74.25H182.971L183.013 74.0516L182.768 74ZM174.635 74.0517L177.804 59.0605L177.314 58.9571L174.146 73.9483L174.635 74.0517ZM177.559 59.2588H185.947V58.7588H177.559V59.2588ZM185.702 58.9568L185.149 61.5613L185.638 61.6653L186.191 59.0608L185.702 58.9568ZM185.393 61.3633H180.143V61.8633H185.393V61.3633ZM179.898 61.5622L179.211 64.8537L179.701 64.9559L180.388 61.6644L179.898 61.5622ZM179.456 65.1548H184.347V64.6548H179.456V65.1548ZM184.103 64.8519L183.539 67.4564L184.028 67.5622L184.592 64.9577L184.103 64.8519ZM183.783 67.2593H178.892V67.7593H183.783V67.2593ZM178.648 67.4574L177.827 71.3231L178.316 71.4269L179.137 67.5612L178.648 67.4574ZM178.072 71.625H183.322V71.125H178.072V71.625ZM183.077 71.3234L182.523 73.9484L183.013 74.0516L183.566 71.4266L183.077 71.3234ZM182.768 73.75H174.391V74.25H182.768V73.75ZM188.418 74L188.169 74.0216L188.189 74.25H188.418V74ZM187.116 59.0088V58.7588H186.843L186.867 59.0304L187.116 59.0088ZM190.141 59.0088L190.39 58.9943L190.377 58.7588H190.141V59.0088ZM190.664 68.0322L190.414 68.0467L190.414 68.05L190.664 68.0322ZM190.694 68.9858H190.444L190.444 68.9907L190.694 68.9858ZM190.643 70.9341L190.394 70.9086L190.366 71.1841H190.643V70.9341ZM190.735 70.9341V71.1841H190.919L190.974 71.0083L190.735 70.9341ZM191.433 69.0166L191.663 69.1128L191.664 69.1111L191.433 69.0166ZM191.863 68.0322L191.639 67.9225L191.637 67.9262L191.863 68.0322ZM196.272 59.0088V58.7588H196.116L196.048 58.899L196.272 59.0088ZM199.513 59.0088L199.735 59.1227L199.921 58.7588H199.513V59.0088ZM191.843 74V74.25H191.996L192.065 74.1139L191.843 74ZM188.667 73.9784L187.365 58.9872L186.867 59.0304L188.169 74.0216L188.667 73.9784ZM187.116 59.2588H190.141V58.7588H187.116V59.2588ZM189.891 59.0233L190.414 68.0467L190.913 68.0178L190.39 58.9943L189.891 59.0233ZM190.414 68.05C190.434 68.3301 190.444 68.642 190.444 68.9858H190.944C190.944 68.6325 190.934 68.3085 190.913 68.0144L190.414 68.05ZM190.444 68.9907C190.451 69.3361 190.451 69.6781 190.444 70.0165L190.944 70.0265C190.951 69.6813 190.951 69.3328 190.944 68.9809L190.444 68.9907ZM190.444 70.0165C190.438 70.3532 190.421 70.6503 190.394 70.9086L190.892 70.9596C190.92 70.6846 190.937 70.3734 190.944 70.0265L190.444 70.0165ZM190.643 71.1841H190.735V70.6841H190.643V71.1841ZM190.974 71.0083C191.069 70.7046 191.173 70.3937 191.288 70.0758L190.818 69.9057C190.701 70.2303 190.594 70.5484 190.497 70.8598L190.974 71.0083ZM191.288 70.0758C191.403 69.7584 191.528 69.4374 191.663 69.1128L191.202 68.9204C191.064 69.2521 190.936 69.5805 190.818 69.9057L191.288 70.0758ZM191.664 69.1111C191.799 68.7799 191.941 68.4556 192.09 68.1382L191.637 67.9262C191.485 68.2514 191.339 68.5834 191.201 68.9221L191.664 69.1111ZM192.088 68.142L196.497 59.1185L196.048 58.899L191.639 67.9225L192.088 68.142ZM196.272 59.2588H199.513V58.7588H196.272V59.2588ZM199.29 58.8949L191.62 73.8861L192.065 74.1139L199.735 59.1227L199.29 58.8949ZM191.843 73.75H188.418V74.25H191.843V73.75ZM198.139 74L197.894 73.948L197.83 74.25H198.139V74ZM201.328 59.0088V58.7588H201.125L201.083 58.9568L201.328 59.0088ZM204.465 59.0088L204.71 59.061L204.774 58.7588H204.465V59.0088ZM201.266 74V74.25H201.468L201.511 74.0522L201.266 74ZM198.383 74.052L201.572 59.0608L201.083 58.9568L197.894 73.948L198.383 74.052ZM201.328 59.2588H204.465V58.7588H201.328V59.2588ZM204.221 58.9566L201.022 73.9478L201.511 74.0522L204.71 59.061L204.221 58.9566ZM201.266 73.75H198.139V74.25H201.266V73.75ZM204.886 74L204.641 73.9483L204.577 74.25H204.886V74ZM208.054 59.0088V58.7588H207.852L207.81 58.9571L208.054 59.0088ZM216.493 70.4214L216.279 70.2916L216.279 70.2922L216.493 70.4214ZM214.781 72.3594L214.627 72.1622L214.626 72.163L214.781 72.3594ZM208.567 71.375L208.322 71.3231L208.258 71.625H208.567V71.375ZM211.5 71.0366L211.596 71.2673L211.597 71.2667L211.5 71.0366ZM212.915 70.0728L212.736 69.8975L212.735 69.899L212.915 70.0728ZM213.909 68.6372L213.684 68.5277L213.683 68.5299L213.909 68.6372ZM214.504 66.853L214.749 66.9026L214.749 66.9021L214.504 66.853ZM210.638 61.6133V61.3633H210.436L210.394 61.5614L210.638 61.6133ZM205.13 74.0517L208.299 59.0605L207.81 58.9571L204.641 73.9483L205.13 74.0517ZM208.054 59.2588H212.115V58.7588H208.054V59.2588ZM212.115 59.2588C213.91 59.2588 215.265 59.7318 216.218 60.6452L216.564 60.2844C215.492 59.2565 213.997 58.7588 212.115 58.7588V59.2588ZM216.218 60.6452C217.166 61.5554 217.658 62.8862 217.658 64.6792H218.158C218.158 62.7944 217.639 61.3157 216.564 60.2844L216.218 60.6452ZM217.658 64.6792C217.658 65.7965 217.54 66.8253 217.307 67.7669L217.792 67.8874C218.037 66.9012 218.158 65.8314 218.158 64.6792H217.658ZM217.307 67.7669C217.073 68.7089 216.73 69.5498 216.279 70.2916L216.707 70.5511C217.186 69.7617 217.547 68.8731 217.792 67.8874L217.307 67.7669ZM216.279 70.2922C215.837 71.0254 215.286 71.6482 214.627 72.1622L214.935 72.5565C215.643 72.0041 216.234 71.3349 216.707 70.5506L216.279 70.2922ZM214.626 72.163C213.975 72.6763 213.222 73.0695 212.367 73.3413L212.519 73.8178C213.427 73.5291 214.233 73.1089 214.936 72.5557L214.626 72.163ZM212.367 73.3413C211.513 73.6127 210.562 73.75 209.51 73.75V74.25C210.605 74.25 211.609 74.107 212.519 73.8178L212.367 73.3413ZM209.51 73.75H204.886V74.25H209.51V73.75ZM208.567 71.625H209.654V71.125H208.567V71.625ZM209.654 71.625C210.371 71.625 211.02 71.5077 211.596 71.2673L211.403 70.8059C210.899 71.0167 210.317 71.125 209.654 71.125V71.625ZM211.597 71.2667C212.174 71.0217 212.674 70.6817 213.094 70.2465L212.735 69.899C212.363 70.2841 211.919 70.5867 211.402 70.8065L211.597 71.2667ZM213.093 70.248C213.517 69.817 213.864 69.3152 214.135 68.7445L213.683 68.5299C213.435 69.053 213.119 69.5082 212.736 69.8975L213.093 70.248ZM214.134 68.7468C214.41 68.1794 214.615 67.5643 214.749 66.9026L214.259 66.8035C214.133 67.4269 213.941 68.0013 213.684 68.5277L214.134 68.7468ZM214.749 66.9021C214.882 66.2358 214.949 65.5495 214.949 64.8433H214.449C214.449 65.5179 214.385 66.1714 214.259 66.804L214.749 66.9021ZM214.949 64.8433C214.949 63.7095 214.685 62.8202 214.109 62.2284L213.751 62.5773C214.2 63.0382 214.449 63.7759 214.449 64.8433H214.949ZM214.109 62.2284C213.539 61.6435 212.765 61.3633 211.817 61.3633V61.8633C212.661 61.8633 213.295 62.1095 213.751 62.5773L214.109 62.2284ZM211.817 61.3633H210.638V61.8633H211.817V61.3633ZM210.394 61.5614L208.322 71.3231L208.811 71.4269L210.883 61.6652L210.394 61.5614ZM219.098 74L218.853 73.9483L218.789 74.25H219.098V74ZM222.266 59.0088V58.7588H222.063L222.022 58.9571L222.266 59.0088ZM230.654 59.0088L230.898 59.0608L230.963 58.7588H230.654V59.0088ZM230.1 61.6133V61.8633H230.303L230.345 61.6653L230.1 61.6133ZM224.85 61.6133V61.3633H224.647L224.605 61.5622L224.85 61.6133ZM224.163 64.9048L223.918 64.8537L223.856 65.1548H224.163V64.9048ZM229.054 64.9048L229.299 64.9577L229.364 64.6548H229.054V64.9048ZM228.49 67.5093V67.7593H228.692L228.735 67.5622L228.49 67.5093ZM223.599 67.5093V67.2593H223.397L223.355 67.4574L223.599 67.5093ZM222.779 71.375L222.534 71.3231L222.47 71.625H222.779V71.375ZM228.029 71.375L228.273 71.4266L228.337 71.125H228.029V71.375ZM227.475 74V74.25H227.678L227.72 74.0516L227.475 74ZM219.342 74.0517L222.511 59.0605L222.022 58.9571L218.853 73.9483L219.342 74.0517ZM222.266 59.2588H230.654V58.7588H222.266V59.2588ZM230.409 58.9568L229.856 61.5613L230.345 61.6653L230.898 59.0608L230.409 58.9568ZM230.1 61.3633H224.85V61.8633H230.1V61.3633ZM224.605 61.5622L223.918 64.8537L224.408 64.9559L225.095 61.6644L224.605 61.5622ZM224.163 65.1548H229.054V64.6548H224.163V65.1548ZM228.81 64.8519L228.246 67.4564L228.735 67.5622L229.299 64.9577L228.81 64.8519ZM228.49 67.2593H223.599V67.7593H228.49V67.2593ZM223.355 67.4574L222.534 71.3231L223.023 71.4269L223.844 67.5612L223.355 67.4574ZM222.779 71.625H228.029V71.125H222.779V71.625ZM227.784 71.3234L227.23 73.9484L227.72 74.0516L228.273 71.4266L227.784 71.3234ZM227.475 73.75H219.098V74.25H227.475V73.75ZM233.699 73.4976L233.575 73.7143L233.575 73.7147L233.699 73.4976ZM231.833 71.5083L231.609 71.6187L231.609 71.6194L231.833 71.5083ZM231.402 66.1558L231.156 66.1105L231.156 66.1126L231.402 66.1558ZM232.038 63.8999L231.806 63.8078L231.805 63.8097L232.038 63.8999ZM233.115 61.8799L232.91 61.7361L232.909 61.7376L233.115 61.8799ZM243.235 60.311L243.049 60.4776L243.05 60.4789L243.235 60.311ZM244.415 66.8018L244.168 66.7596L244.168 66.7617L244.415 66.8018ZM243.799 69.0986L243.566 69.0092L243.565 69.0111L243.799 69.0986ZM242.743 71.1289L242.538 70.9866L242.537 70.9871L242.743 71.1289ZM241.236 72.749L241.391 72.9454L241.392 72.9442L241.236 72.749ZM239.247 73.8257L239.328 74.0622L239.329 74.0617L239.247 73.8257ZM239.226 70.6675L239.388 70.8576L239.391 70.8556L239.226 70.6675ZM240.118 69.6216L239.909 69.4845L239.909 69.4853L240.118 69.6216ZM240.815 68.2168L241.05 68.3032L241.05 68.3022L240.815 68.2168ZM241.256 66.4839L241.01 66.441L241.01 66.4437L241.256 66.4839ZM240.774 62.249L240.576 62.401L240.577 62.4025L240.774 62.249ZM237.637 61.6748L237.538 61.4452L237.536 61.4459L237.637 61.6748ZM236.55 62.4028L236.379 62.2206L236.377 62.2223L236.55 62.4028ZM234.53 66.6377L234.283 66.5952L234.283 66.598L234.53 66.6377ZM234.694 70.1753L234.466 70.2775L234.466 70.2787L234.694 70.1753ZM235.586 71.2007L235.458 71.4154L235.461 71.417L235.586 71.2007ZM236.765 73.9551C235.58 73.9551 234.603 73.7254 233.823 73.2804L233.575 73.7147C234.449 74.2131 235.517 74.4551 236.765 74.4551V73.9551ZM233.824 73.2808C233.047 72.834 232.459 72.2078 232.057 71.3972L231.609 71.6194C232.055 72.5178 232.711 73.2178 233.575 73.7143L233.824 73.2808ZM232.057 71.3979C231.653 70.577 231.447 69.6113 231.447 68.4937H230.947C230.947 69.6729 231.165 70.7169 231.609 71.6187L232.057 71.3979ZM231.447 68.4937C231.447 67.7291 231.514 66.9642 231.649 66.199L231.156 66.1126C231.017 66.9059 230.947 67.6997 230.947 68.4937H231.447ZM231.648 66.2011C231.789 65.4368 231.997 64.6999 232.271 63.9901L231.805 63.8097C231.519 64.5491 231.303 65.3162 231.156 66.1105L231.648 66.2011ZM232.271 63.992C232.551 63.2846 232.901 62.6281 233.32 62.0222L232.909 61.7376C232.467 62.3758 232.1 63.066 231.806 63.8078L232.271 63.992ZM233.319 62.0237C233.743 61.4211 234.239 60.8953 234.808 60.4456L234.498 60.0534C233.891 60.5334 233.361 61.0946 232.91 61.7361L233.319 62.0237ZM234.808 60.4456C235.373 59.999 236.014 59.6497 236.735 59.3987L236.57 58.9265C235.8 59.195 235.109 59.5704 234.498 60.0534L234.808 60.4456ZM236.735 59.3987C237.45 59.1494 238.248 59.0229 239.134 59.0229V58.5229C238.201 58.5229 237.345 58.6563 236.57 58.9265L236.735 59.3987ZM239.134 59.0229C240.905 59.0229 242.194 59.521 243.049 60.4776L243.422 60.1445C242.444 59.0503 240.999 58.5229 239.134 58.5229V59.0229ZM243.05 60.4789C243.922 61.4414 244.37 62.7334 244.37 64.3818H244.87C244.87 62.6396 244.394 61.2178 243.421 60.1432L243.05 60.4789ZM244.37 64.3818C244.37 65.1812 244.302 65.9738 244.168 66.7596L244.661 66.8439C244.8 66.0301 244.87 65.2094 244.87 64.3818H244.37ZM244.168 66.7617C244.041 67.5452 243.84 68.2942 243.566 69.0092L244.033 69.1881C244.319 68.4401 244.529 67.6579 244.661 66.8418L244.168 66.7617ZM243.565 69.0111C243.299 69.7238 242.956 70.3821 242.538 70.9866L242.949 71.2712C243.392 70.6316 243.753 69.9364 244.034 69.1862L243.565 69.0111ZM242.537 70.9871C242.127 71.5823 241.642 72.1043 241.08 72.5538L241.392 72.9442C241.992 72.4641 242.511 71.906 242.949 71.2707L242.537 70.9871ZM241.081 72.5527C240.523 72.9924 239.885 73.3384 239.164 73.5896L239.329 74.0617C240.098 73.7935 240.786 73.4217 241.391 72.9454L241.081 72.5527ZM239.166 73.5892C238.457 73.8318 237.658 73.9551 236.765 73.9551V74.4551C237.704 74.4551 238.559 74.3255 239.328 74.0622L239.166 73.5892ZM236.991 71.7891C237.432 71.7891 237.857 71.708 238.263 71.5456L238.077 71.0814C237.731 71.2198 237.37 71.2891 236.991 71.2891V71.7891ZM238.263 71.5456C238.666 71.3844 239.041 71.1544 239.388 70.8576L239.064 70.4774C238.755 70.7411 238.426 70.9417 238.077 71.0814L238.263 71.5456ZM239.391 70.8556C239.738 70.5517 240.05 70.185 240.328 69.7578L239.909 69.4853C239.653 69.8785 239.37 70.2091 239.061 70.4793L239.391 70.8556ZM240.327 69.7587C240.612 69.3242 240.853 68.8386 241.05 68.3032L240.581 68.1304C240.395 68.634 240.171 69.085 239.909 69.4845L240.327 69.7587ZM241.05 68.3022C241.248 67.7594 241.398 67.1664 241.503 66.5241L241.01 66.4437C240.909 67.0592 240.766 67.6215 240.58 68.1314L241.05 68.3022ZM241.503 66.5267C241.615 65.8821 241.67 65.1943 241.67 64.4639H241.17C241.17 65.169 241.117 65.8279 241.01 66.4411L241.503 66.5267ZM241.67 64.4639C241.67 63.503 241.446 62.7052 240.972 62.0955L240.577 62.4025C240.964 62.9002 241.17 63.579 241.17 64.4639H241.67ZM240.973 62.0971C240.492 61.4686 239.778 61.1685 238.877 61.1685V61.6685C239.658 61.6685 240.209 61.922 240.576 62.401L240.973 62.0971ZM238.877 61.1685C238.413 61.1685 237.965 61.2609 237.538 61.4452L237.736 61.9044C238.101 61.7469 238.481 61.6685 238.877 61.6685V61.1685ZM237.536 61.4459C237.119 61.6291 236.733 61.8882 236.379 62.2206L236.721 62.5851C237.037 62.2886 237.376 62.0623 237.737 61.9038L237.536 61.4459ZM236.377 62.2223C236.032 62.5529 235.722 62.9424 235.445 63.3889L235.87 63.6521C236.127 63.2373 236.411 62.8817 236.723 62.5833L236.377 62.2223ZM235.445 63.3889C235.169 63.8356 234.932 64.3298 234.736 64.8706L235.206 65.0415C235.392 64.5296 235.614 64.0667 235.87 63.6521L235.445 63.3889ZM234.736 64.8706C234.539 65.412 234.388 65.987 234.283 66.5952L234.776 66.6802C234.876 66.099 235.02 65.5529 235.206 65.0415L234.736 64.8706ZM234.283 66.598C234.185 67.2067 234.136 67.8386 234.136 68.4937H234.636C234.636 67.8635 234.683 67.2582 234.777 66.6774L234.283 66.598ZM234.136 68.4937C234.136 69.1812 234.242 69.7788 234.466 70.2775L234.922 70.0731C234.735 69.6558 234.636 69.1323 234.636 68.4937H234.136ZM234.466 70.2787C234.69 70.7718 235.02 71.1545 235.458 71.4154L235.714 70.986C235.372 70.7821 235.107 70.4811 234.921 70.0718L234.466 70.2787ZM235.461 71.417C235.896 71.6689 236.409 71.7891 236.991 71.7891V71.2891C236.478 71.2891 236.055 71.1836 235.711 70.9843L235.461 71.417Z" fill="#BA000D"/>
</svg>
